<svg width="25" height="25" viewBox="0 0 25 25" fill="none" xmlns="http://www.w3.org/2000/svg">
<path d="M22.6211 12.988C22.6211 11.6748 22.3624 10.3745 21.8599 9.16113C21.3573 7.948 20.6208 6.84546 19.6922 5.91699C18.7636 4.98828 17.6612 4.25171 16.4479 3.74927C15.2347 3.24658 13.9343 2.98804 12.6211 2.98804V4.98804C13.6717 4.98804 14.7119 5.19507 15.6826 5.59692C16.6532 5.99902 17.5351 6.58838 18.278 7.3313C19.0208 8.07397 19.6101 8.95605 20.0121 9.92651C20.4142 10.8972 20.6211 11.9375 20.6211 12.988H22.6211Z" fill="#00FF73"/>
<path d="M2.62109 10.988V5.98804C2.62109 5.43579 3.06882 4.98804 3.62109 4.98804H8.62109C9.17337 4.98804 9.62109 5.43579 9.62109 5.98804V9.98804C9.62109 10.5403 9.17337 10.988 8.62109 10.988H6.62109C6.62109 15.4062 10.2028 18.988 14.6211 18.988V16.988C14.6211 16.4358 15.0688 15.988 15.6211 15.988H19.6211C20.1734 15.988 20.6211 16.4358 20.6211 16.988V21.988C20.6211 22.5403 20.1734 22.988 19.6211 22.988H14.6211C7.99368 22.988 2.62109 17.6155 2.62109 10.988Z" fill="#00FF73"/>
<path d="M18.1644 10.6919C18.4659 11.4199 18.6211 12.2002 18.6211 12.988H16.8211C16.8211 12.4365 16.7125 11.8904 16.5014 11.3809C16.2903 10.8711 15.981 10.4082 15.5909 10.0183C15.2009 9.62817 14.7379 9.31885 14.2284 9.10767C13.7188 8.89673 13.1726 8.78809 12.6211 8.78809V6.98804C13.409 6.98804 14.1892 7.14331 14.9172 7.44482C15.6451 7.74634 16.3066 8.18823 16.8637 8.74536C17.4209 9.30249 17.8629 9.96387 18.1644 10.6919Z" fill="#00FF73"/>
</svg>
