<svg width="760" height="821" viewBox="0 0 760 821" fill="none" xmlns="http://www.w3.org/2000/svg">
<g opacity="0.2">
<path d="M138.881 23.3627C177.923 23.3627 216.905 23.7289 255.947 23.1797C268.331 22.9966 276.2 26.9021 282.728 37.8253C321.099 101.595 360.081 165.06 399.001 228.524C457.016 323.111 515.092 417.576 573.167 512.102C581.83 526.198 585.124 525.893 594.336 511.247C637.892 441.802 681.632 372.54 725.128 303.095C780.336 215.038 835.545 127.042 890.326 38.7407C897.22 27.6344 905.211 23.1186 918.327 23.2407C995.863 23.7289 1073.4 23.3627 1150.87 23.7289C1157.34 23.7289 1163.75 26.8411 1170.21 28.4887C1168.2 35.2624 1167.59 42.8293 1163.99 48.6266C1048.63 234.017 932.907 419.224 817.427 604.553C795.221 640.19 774.846 676.988 751.42 711.771C727.263 747.714 703.349 784.389 662.538 805.015C614.894 829.12 566.823 830.34 518.203 809.104C471.84 788.783 444.998 749.606 419.376 708.171C323.661 553.476 226.848 399.452 130.462 245.245C88.3696 177.753 46.2159 110.444 4.18429 43.0124C-3.5632 30.6245 0.646063 23.4238 15.836 23.3627C56.8306 23.2407 97.8862 23.3627 138.881 23.3627Z" fill="url(#paint0_linear)"/>
<path d="M765.573 31.6C761.608 38.9228 758.741 45.8185 754.471 51.7378C715.733 105.805 676.752 159.628 637.953 213.634C624.227 232.673 610.685 251.835 597.142 271.057C588.235 283.75 584.209 283.811 575.302 271.362C523.205 198.683 471.047 125.943 418.889 53.2634C417.119 50.8224 415.411 48.3815 413.276 46.1847C403.516 36.1158 404.553 26.3519 412.666 15.4897C436.214 -16.2426 459.273 -48.2801 482.516 -80.2565C512.163 -121.142 541.75 -162.028 571.459 -202.914C584.148 -220.428 588.418 -220.428 600.802 -203.097C652.472 -130.662 704.082 -58.2269 755.63 14.3303C759.29 19.5173 761.974 25.3756 765.573 31.6Z" fill="url(#paint1_linear)"/>
</g>
<defs>
<linearGradient id="paint0_linear" x1="1549.1" y1="1369.41" x2="350.944" y2="96.8159" gradientUnits="userSpaceOnUse">
<stop stop-color="#C4C4C4"/>
<stop offset="1" stop-color="#C4C4C4" stop-opacity="0"/>
</linearGradient>
<linearGradient id="paint1_linear" x1="1549.1" y1="1369.41" x2="350.944" y2="96.8159" gradientUnits="userSpaceOnUse">
<stop stop-color="#C4C4C4"/>
<stop offset="1" stop-color="#C4C4C4" stop-opacity="0"/>
</linearGradient>
</defs>
</svg>
