<svg width="114" height="110" viewBox="0 0 114 110" fill="none" xmlns="http://www.w3.org/2000/svg">
<path d="M56.4586 90.1217L56.4552 90.1222C55.4163 90.3042 54.0106 90.0347 52.268 89.23C50.5454 88.4346 48.6019 87.1667 46.5384 85.5145C42.414 82.2121 37.9147 77.4588 33.8822 72.1656C29.8497 66.8724 26.3164 61.0815 24.0976 55.7192C21.8586 50.3082 21.0427 45.5356 22.1498 42.1615L22.1513 42.157C23.256 38.736 26.0484 35.7134 30.0844 33.2998C34.1126 30.8908 39.3019 29.1385 45.0331 28.2311C56.5101 26.4139 69.9531 28.0146 80.274 34.2375L80.2755 34.2384C85.6444 37.4634 87.96 42.2577 88.165 47.7697C88.372 53.3377 86.4176 59.6544 83.1531 65.7335C79.895 71.8006 75.3758 77.5484 70.5653 81.9626C65.7324 86.3973 60.7088 89.392 56.4586 90.1217Z" stroke="#2F2F2F" stroke-width="2"/>
<g filter="url(#filter0_d)">
<path d="M59.4204 20.8305C69.6805 20.374 93.2993 57.8978 86.8867 71.2819C80.5474 84.6755 48.0711 86.4929 29.6823 71.9911C9.86754 56.4178 41.9783 21.5473 59.4204 20.8305Z" fill="#F36B3A"/>
</g>
<path d="M69.8465 47.0626C68.5778 47.0626 67.3543 47.3345 66.2214 47.7876L64.6807 44.7969V40.0389C64.6807 39.767 64.4995 39.4951 64.2276 39.4045L60.6025 38.0451C60.24 37.9091 59.8774 38.0904 59.7415 38.4529C59.6056 38.8154 59.7868 39.1779 60.1493 39.3139L63.3666 40.492V44.3437H50.0896V43.0296H51.7209C52.0834 43.0296 52.4006 42.7124 52.4006 42.3499C52.4006 41.9874 52.0834 41.6702 51.7209 41.6702H47.5067C47.1442 41.6702 46.827 41.9874 46.827 42.3499C46.827 42.7124 47.1442 43.0296 47.5067 43.0296H48.7302V44.8875L47.4161 47.7423C46.4192 47.3345 45.2863 47.1079 44.1535 47.1079C39.1236 47.1079 35 51.1862 35 56.2614C35 61.3365 39.0783 65.4148 44.1535 65.4148C48.9567 65.4148 52.8991 61.6537 53.2616 56.9411H56.207C56.4336 56.9411 56.6148 56.8504 56.7508 56.6692L63.8651 46.3829L64.9979 48.5126C62.415 50.0533 60.6931 52.9534 60.6931 56.216C60.6931 61.2459 64.7714 65.3695 69.8465 65.3695C74.9217 65.3695 79 61.2912 79 56.216C79 51.1409 74.9217 47.0626 69.8465 47.0626ZM44.1535 64.0101C39.8486 64.0101 36.3594 60.5209 36.3594 56.216C36.3594 51.9112 39.8486 48.422 44.1535 48.422C45.105 48.422 46.0113 48.6033 46.827 48.9205L43.5191 55.9442C43.5191 55.9442 43.5191 55.9442 43.5191 55.9895C43.4737 56.0801 43.4737 56.1254 43.4737 56.216C43.4737 56.216 43.4737 56.216 43.4737 56.2614C43.4737 56.352 43.4737 56.3973 43.5191 56.4879V56.5332C43.5191 56.5786 43.5191 56.5786 43.5644 56.6239C43.5644 56.6692 43.6097 56.6692 43.655 56.7145C43.655 56.7145 43.655 56.7145 43.655 56.7598C43.7003 56.8051 43.7909 56.8504 43.8363 56.8957H43.8816C43.9722 56.9411 44.0175 56.9411 44.1081 56.9411H51.8568C51.5396 60.8834 48.2317 64.0101 44.1535 64.0101ZM45.1957 55.5363L48.0505 49.5095C50.1802 50.733 51.6756 52.9534 51.9022 55.5363H45.1957ZM55.8445 55.5363H53.2163C52.9897 52.4097 51.1771 49.7361 48.5942 48.2408L49.8177 45.6579H62.6416L55.8445 55.5363ZM69.8012 64.0101C65.4964 64.0101 62.0072 60.5209 62.0072 56.216C62.0072 53.4519 63.4573 51.0502 65.6323 49.6455L69.2122 56.5332C69.3481 56.7598 69.5747 56.8957 69.8012 56.8957C69.8919 56.8957 70.0278 56.8504 70.1184 56.8051C70.4356 56.6239 70.5716 56.216 70.3903 55.8988L66.8105 49.0111C67.7621 48.6486 68.759 48.422 69.8012 48.422C74.1061 48.422 77.5953 51.9112 77.5953 56.216C77.5953 60.5209 74.1061 64.0101 69.8012 64.0101Z" fill="black"/>
<defs>
<filter id="filter0_d" x="0.946289" y="0.818122" width="112.395" height="108.886" filterUnits="userSpaceOnUse" color-interpolation-filters="sRGB">
<feFlood flood-opacity="0" result="BackgroundImageFix"/>
<feColorMatrix in="SourceAlpha" type="matrix" values="0 0 0 0 0 0 0 0 0 0 0 0 0 0 0 0 0 0 127 0"/>
<feOffset dy="4"/>
<feGaussianBlur stdDeviation="10"/>
<feColorMatrix type="matrix" values="0 0 0 0 0.113725 0 0 0 0 0.211765 0 0 0 0 0.396078 0 0 0 0.2 0"/>
<feBlend mode="normal" in2="BackgroundImageFix" result="effect1_dropShadow"/>
<feBlend mode="normal" in="SourceGraphic" in2="effect1_dropShadow" result="shape"/>
</filter>
</defs>
</svg>
