<svg width="113" height="110" viewBox="0 0 113 110" fill="none" xmlns="http://www.w3.org/2000/svg">
<path d="M55.7613 90.0706L55.758 90.0712C54.719 90.2532 53.3134 89.9836 51.5707 89.1789C49.8481 88.3835 47.9046 87.1156 45.8412 85.4634C41.7167 82.161 37.2174 77.4078 33.1849 72.1146C29.1525 66.8213 25.6191 61.0304 23.4003 55.6682C21.1614 50.2571 20.3454 45.4845 21.4526 42.1104L21.454 42.1059C22.5587 38.6849 25.3511 35.6623 29.3871 33.2487C33.4154 30.8398 38.6046 29.0875 44.3358 28.18C55.8128 26.3628 69.2558 27.9635 79.5768 34.1865L79.5782 34.1873C84.9471 37.4124 87.2627 42.2066 87.4677 47.7187C87.6748 53.2866 85.7203 59.6033 82.4558 65.6824C79.1977 71.7495 74.6785 77.4973 69.868 81.9115C65.0352 86.3462 60.0115 89.3409 55.7613 90.0706Z" stroke="#2F2F2F" stroke-width="2"/>
<g filter="url(#filter0_d)">
<path d="M58.7221 20.7795C68.9823 20.323 92.6011 57.8468 86.1885 71.2309C79.8492 84.6244 47.3729 86.4418 28.984 71.94C9.1693 56.3668 41.28 21.4963 58.7221 20.7795Z" fill="#F36B3A"/>
</g>
<g clip-path="url(#clip0)">
<path d="M53.9391 52.8756C53.7881 52.8756 53.637 52.8137 53.5464 52.7207L51.3112 50.7074C51.0695 50.4905 51.0393 50.0878 51.2508 49.84C51.4622 49.5922 51.8549 49.5613 52.0965 49.7781L53.8787 51.3578L57.3523 47.1452C57.5638 46.8974 57.9565 46.8664 58.1981 47.0832C58.4398 47.3001 58.47 47.7028 58.2585 47.9506L54.4224 52.6588C54.3318 52.7827 54.1807 52.8756 53.9995 52.8756C53.9693 52.8756 53.9693 52.8756 53.9391 52.8756Z" fill="black"/>
<path d="M54.9662 56.4378C58.7419 56.4378 61.7927 53.3093 61.7927 49.4374C61.7927 45.5655 58.7419 42.437 54.9662 42.437C51.1904 42.437 48.1396 45.5655 48.1396 49.4374C48.1396 53.3093 51.1904 56.4378 54.9662 56.4378ZM54.9662 43.5521C58.1378 43.5521 60.7053 46.185 60.7053 49.4374C60.7053 52.6898 58.1378 55.3227 54.9662 55.3227C51.7946 55.3227 49.2271 52.6898 49.2271 49.4374C49.2271 46.185 51.7946 43.5521 54.9662 43.5521Z" fill="black"/>
<path d="M63.0912 58.1724C63.3631 58.1414 63.5745 57.9246 63.5745 57.6458L63.8464 53.4642L66.8065 49.6852C66.9878 49.4684 66.9576 49.1586 66.7763 48.9728L64.0578 45.9062L63.5745 41.0121C63.5443 40.7333 63.3329 40.5165 63.061 40.5165L58.802 40.2997L55.2981 37.2021C55.2075 37.1092 55.0867 37.0782 54.9659 37.0782C54.845 37.0782 54.694 37.1402 54.6034 37.2331L51.3412 40.2067L46.8707 40.5165C46.5989 40.5475 46.3874 40.7643 46.3572 41.0431L46.0854 45.4106L43.1252 48.9728C42.9439 49.1896 42.9439 49.4993 43.1252 49.6852L45.9343 53.1234L46.327 57.6458C46.3572 57.8936 46.5384 58.1105 46.8103 58.1414L48.6226 58.3273L48.8341 58.3583L48.7435 58.5751L45.0282 68.4252C44.9375 68.6421 44.9979 68.8589 45.149 69.0138C45.2396 69.1377 45.3906 69.1996 45.5416 69.1996C45.6021 69.1996 45.6625 69.1996 45.7229 69.1686L48.8945 68.0845L50.4954 71.0891C50.586 71.275 50.7673 71.3679 50.9787 71.3679H51.0089C51.2203 71.3679 51.4016 71.213 51.4922 71.0272L54.9055 62.1063L54.9961 61.8894H55.0263C55.0565 61.8894 55.0867 61.8894 55.1471 61.8894C55.1773 61.8894 55.2377 61.8585 55.2679 61.8275C55.2981 61.8275 55.2981 61.7965 55.3283 61.7965L55.419 62.0133L59.4363 70.3457C59.5269 70.5316 59.7082 70.6555 59.9196 70.6555C60.1311 70.6555 60.3123 70.5316 60.4029 70.3147L61.732 67.1552L64.964 67.9296C64.9942 67.9296 65.0546 67.9606 65.0848 67.9606C65.3869 67.9606 65.6285 67.7128 65.6285 67.403C65.6285 67.3101 65.5983 67.2172 65.5379 67.0933L61.4299 58.5751L61.3091 58.3583L61.5507 58.3273L63.0912 58.1724ZM47.3842 57.0883L46.9915 52.8447C46.9915 52.7208 46.9311 52.6278 46.8707 52.5349L44.273 49.3445L47.0519 45.9681C47.1124 45.8752 47.1728 45.7513 47.1728 45.6274L47.4144 41.5697L51.5828 41.2909C51.7036 41.2909 51.8245 41.2289 51.9151 41.167L54.9659 38.3792L58.2281 41.2599C58.3187 41.3528 58.4395 41.3838 58.5604 41.3838L62.5475 41.6006L63.0006 46.2159C63.0006 46.3399 63.061 46.4328 63.1516 46.5257L65.6889 49.3754L62.91 52.9066C62.8496 52.9995 62.7892 53.0925 62.7892 53.2164L62.5475 57.1192L61.007 57.3051L60.5237 57.3671C60.4935 57.3671 60.4935 57.3671 60.4633 57.3671L58.2885 57.6149C58.1677 57.6149 58.0771 57.6768 57.9864 57.7697L55.1773 60.4026L55.0867 60.4336L54.9659 60.5575L54.8148 60.4336L51.8245 57.7078C51.7338 57.6458 51.6432 57.5839 51.5224 57.5839L49.7101 57.398C49.6798 57.398 49.6798 57.398 49.6496 57.398L49.1663 57.3361L47.3842 57.0883ZM50.8277 69.4784L49.5892 67.1243C49.4986 66.9384 49.3174 66.8455 49.1059 66.8455C49.0455 66.8455 48.9851 66.8455 48.9247 66.8765L46.4478 67.7128L49.8913 58.73L49.9819 58.5131L51.2203 58.637L54.0295 61.208L53.9389 61.4248L50.8277 69.4784ZM60.2821 58.73L64.088 66.5977L61.5507 65.9782C61.5205 65.9782 61.4601 65.9782 61.4299 65.9782C61.2185 65.9782 61.007 66.1021 60.9164 66.3189L59.8592 68.766L56.2345 61.239L56.1439 61.0221L58.5604 58.73L60.1915 58.5441L60.2821 58.73Z" fill="black"/>
</g>
<defs>
<filter id="filter0_d" x="0.248047" y="0.767097" width="112.395" height="108.886" filterUnits="userSpaceOnUse" color-interpolation-filters="sRGB">
<feFlood flood-opacity="0" result="BackgroundImageFix"/>
<feColorMatrix in="SourceAlpha" type="matrix" values="0 0 0 0 0 0 0 0 0 0 0 0 0 0 0 0 0 0 127 0"/>
<feOffset dy="4"/>
<feGaussianBlur stdDeviation="10"/>
<feColorMatrix type="matrix" values="0 0 0 0 0.113725 0 0 0 0 0.211765 0 0 0 0 0.396078 0 0 0 0.2 0"/>
<feBlend mode="normal" in2="BackgroundImageFix" result="effect1_dropShadow"/>
<feBlend mode="normal" in="SourceGraphic" in2="effect1_dropShadow" result="shape"/>
</filter>
<clipPath id="clip0">
<rect width="23.923" height="34.2896" fill="white" transform="translate(43.0049 37.0782)"/>
</clipPath>
</defs>
</svg>
