<svg width="113" height="110" viewBox="0 0 113 110" fill="none" xmlns="http://www.w3.org/2000/svg">
<path d="M56.0992 89.5593L56.0959 89.5599C55.0569 89.7419 53.6513 89.4724 51.9086 88.6677C50.186 87.8723 48.2425 86.6044 46.1791 84.9522C42.0546 81.6498 37.5553 76.8965 33.5228 71.6033C29.4904 66.3101 25.957 60.5192 23.7382 55.1569C21.4993 49.7459 20.6833 44.9733 21.7905 41.5992L21.7919 41.5947C22.8966 38.1737 25.689 35.1511 29.725 32.7375C33.7533 30.3285 38.9425 28.5762 44.6737 27.6688C56.1507 25.8516 69.5937 27.4523 79.9147 33.6752L79.9161 33.6761C85.285 36.9011 87.6006 41.6954 87.8056 47.2074C88.0127 52.7754 86.0582 59.0921 82.7937 65.1711C79.5356 71.2383 75.0164 76.9861 70.2059 81.4003C65.373 85.835 60.3494 88.8297 56.0992 89.5593Z" stroke="#2F2F2F" stroke-width="2"/>
<g filter="url(#filter0_d)">
<path d="M59.06 20.2682C69.3202 19.8117 92.939 57.3356 86.5264 70.7197C80.1871 84.1132 47.7108 85.9306 29.3219 71.4288C9.50719 55.8555 41.6179 20.9851 59.06 20.2682Z" fill="#F36B3A"/>
</g>
<g clip-path="url(#clip0)">
<path d="M53.5222 48.6053C53.5222 48.912 53.3695 49.9855 53.2932 50.6755V50.7522C52.9115 53.9725 52.8351 54.8926 53.4458 55.276C53.5985 55.4293 53.8275 55.4293 54.0565 55.4293C54.7435 55.4293 55.8886 54.8926 57.797 53.9725C58.3313 53.7425 59.4764 53.2058 59.7054 53.1291C60.0107 53.2058 61.0031 53.6658 61.6901 53.9725C63.5985 54.8926 64.8199 55.4293 65.4306 55.4293C65.6596 55.4293 65.8886 55.3526 66.0412 55.276C66.6519 54.8159 66.5756 53.9725 66.1939 50.6755C66.1176 50.0621 65.9649 48.8353 65.9649 48.6053C66.1176 48.3753 66.9573 47.4552 67.4153 46.9952C69.629 44.6183 70.1634 43.9282 69.9344 43.2381C69.7054 42.548 68.8657 42.318 65.6596 41.7046C65.0489 41.5513 63.8275 41.3213 63.5985 41.2446C63.3695 41.0146 62.8351 39.9411 62.5298 39.4044C61.0031 36.4908 60.5451 35.8007 59.7817 35.8007C59.0183 35.8007 58.5603 36.4908 56.9573 39.4044L56.8809 39.5578C56.5756 40.1711 56.0412 41.0912 55.8886 41.2446C55.5832 41.3213 54.4382 41.5513 53.8275 41.7046C50.6214 42.318 49.7817 42.548 49.5527 43.2381C49.3237 43.9282 49.858 44.6183 52.0718 46.9952C52.5298 47.4552 53.3695 48.3753 53.5222 48.6053ZM64.5909 48.1453C64.4382 48.5286 64.5145 49.142 64.7435 50.9822C64.8199 51.8256 64.9725 53.1291 65.0489 53.8192C64.3619 53.5891 63.1405 52.9757 62.3771 52.6691C60.7741 51.9023 60.1634 51.6723 59.7817 51.6723C59.4 51.6723 58.7893 51.9023 57.1863 52.6691C56.4229 53.0524 55.2779 53.5891 54.5145 53.8192C54.5145 53.1291 54.6672 51.8256 54.8199 50.9822V50.9055C55.0489 49.142 55.1252 48.5286 54.9725 48.1453C54.8199 47.7619 54.4382 47.3019 53.2168 45.9984C52.6825 45.385 51.7664 44.3882 51.3084 43.8515C51.9954 43.6215 53.2932 43.3915 54.1328 43.2381C55.8886 42.9314 56.4993 42.7781 56.8046 42.5481C57.1099 42.318 57.4153 41.7813 58.3313 40.1711C58.713 39.4811 59.4 38.2543 59.7817 37.6409C60.2397 38.2543 60.8504 39.4044 61.2321 40.1711C62.0718 41.7813 62.3771 42.318 62.7588 42.5481C63.0641 42.7781 63.6748 42.9314 65.4306 43.2381C66.2702 43.3915 67.568 43.6215 68.255 43.8515C67.797 44.4649 66.8809 45.385 66.3466 45.9984C65.1252 47.3019 64.6672 47.7619 64.5909 48.1453Z" fill="black"/>
<path d="M70.8507 57.9596C70.6216 57.5762 69.8583 56.6561 67.9499 57.2695C65.5071 57.9596 62.2247 59.8764 60.7743 60.7965C60.469 60.3365 59.9346 59.9531 59.3239 59.6464C59.2476 59.5697 59.0949 59.4931 58.8659 59.4164H58.7896C55.3545 57.7296 50.5453 55.506 47.4919 55.8127C45.1255 56.0427 44.1331 58.343 43.8278 59.1864L42.072 60.3365L41.2323 59.1864C41.0797 59.033 40.927 58.8797 40.698 58.8797C40.469 58.8797 40.3163 58.8797 40.0873 59.033L36.2705 62.1C36.1178 62.1767 36.0415 62.6367 36.2705 63.0201L42.3774 71.4542C42.5301 71.6076 42.6827 71.7609 42.9117 71.7609H42.9881C43.1407 71.7609 43.2934 71.6843 43.4461 71.6076L47.2629 68.5406C47.5682 68.3106 47.6446 67.8506 47.4155 67.4672L47.0339 66.9305L49.0186 66.4704C50.24 67.0071 53.9804 68.694 56.7285 68.694C61.0033 68.694 68.2552 62.7901 70.24 60.7965C71.0797 59.8764 71.385 58.803 70.8507 57.9596ZM43.0644 61.4099L44.9728 60.1065C45.1255 60.0298 45.2018 59.8764 45.2781 59.6464C45.2781 59.6464 45.8888 57.2695 47.6446 57.1162C49.6293 56.9628 53.1407 58.1129 58.1026 60.5665L58.2552 60.6432C58.4842 60.7199 58.6369 60.7965 58.7133 60.8732C59.5529 61.2566 59.8583 61.7933 59.7056 62.1767C59.6293 62.4834 59.1713 62.7134 58.4842 62.56L52.3774 61.0266C52.1484 60.9499 51.9957 61.0265 51.7667 61.1032C51.614 61.1799 51.4613 61.4099 51.385 61.5633C51.3087 61.7933 51.385 61.9466 51.4613 62.1767C51.5377 62.4067 51.7667 62.4834 51.9194 62.56L58.0262 64.0935C59.6293 64.4769 60.7743 63.7101 61.0797 62.7901C61.156 62.6367 61.156 62.4834 61.156 62.33C62.072 61.7166 65.8125 59.4931 68.3316 58.7263C68.9423 58.573 69.4003 58.573 69.4766 58.7263C69.5529 58.8797 69.4766 59.263 69.0949 59.7231C66.9575 61.87 60.3163 67.1605 56.7285 67.1605C53.9041 67.1605 49.4766 64.9369 49.4003 64.9369C49.2476 64.8603 49.0186 64.8603 48.8659 64.8603L46.0415 65.5503L43.0644 61.4099ZM45.7362 67.7739L43.1407 69.8441L37.9499 62.6367L40.5453 60.5665L45.7362 67.7739Z" fill="black"/>
</g>
<defs>
<filter id="filter0_d" x="0.585938" y="0.255867" width="112.395" height="108.886" filterUnits="userSpaceOnUse" color-interpolation-filters="sRGB">
<feFlood flood-opacity="0" result="BackgroundImageFix"/>
<feColorMatrix in="SourceAlpha" type="matrix" values="0 0 0 0 0 0 0 0 0 0 0 0 0 0 0 0 0 0 127 0"/>
<feOffset dy="4"/>
<feGaussianBlur stdDeviation="10"/>
<feColorMatrix type="matrix" values="0 0 0 0 0.113725 0 0 0 0 0.211765 0 0 0 0 0.396078 0 0 0 0.2 0"/>
<feBlend mode="normal" in2="BackgroundImageFix" result="effect1_dropShadow"/>
<feBlend mode="normal" in="SourceGraphic" in2="effect1_dropShadow" result="shape"/>
</filter>
<clipPath id="clip0">
<rect width="35.0382" height="35.9602" fill="white" transform="translate(36.1182 35.8007)"/>
</clipPath>
</defs>
</svg>
