<svg width="21" height="20" viewBox="0 0 21 20" fill="none" xmlns="http://www.w3.org/2000/svg">
<g clip-path="url(#clip0)">
<g clip-path="url(#clip1)">
<path d="M13.8332 0.119629H6.41224C2.99735 0.119629 0.228088 2.88889 0.228088 6.30378V13.7248C0.228088 17.1396 2.99735 19.9089 6.41224 19.9089H13.8332C17.2481 19.9089 20.0174 17.1396 20.0174 13.7248V6.30378C20.0174 2.88889 17.2481 0.119629 13.8332 0.119629ZM18.1621 13.7248C18.1621 16.1118 16.2203 18.0537 13.8332 18.0537H6.41224C4.02516 18.0537 2.08333 16.1118 2.08333 13.7248V6.30378C2.08333 3.9167 4.02516 1.97487 6.41224 1.97487H13.8332C16.2203 1.97487 18.1621 3.9167 18.1621 6.30378V13.7248Z" fill="#1D3665"/>
<path d="M10.1228 5.06689C7.39061 5.06689 5.17545 7.28206 5.17545 10.0142C5.17545 12.7464 7.39061 14.9615 10.1228 14.9615C12.8549 14.9615 15.0701 12.7464 15.0701 10.0142C15.0701 7.28206 12.8549 5.06689 10.1228 5.06689ZM10.1228 13.1063C8.41841 13.1063 7.03069 11.7186 7.03069 10.0142C7.03069 8.30863 8.41841 6.92214 10.1228 6.92214C11.8271 6.92214 13.2148 8.30863 13.2148 10.0142C13.2148 11.7186 11.8271 13.1063 10.1228 13.1063Z" fill="#1D3665"/>
<path d="M15.6885 5.06685C16.03 5.06685 16.3069 4.78997 16.3069 4.44843C16.3069 4.10689 16.03 3.83002 15.6885 3.83002C15.3469 3.83002 15.0701 4.10689 15.0701 4.44843C15.0701 4.78997 15.3469 5.06685 15.6885 5.06685Z" fill="#1D3665"/>
</g>
</g>
<defs>
<clipPath id="clip0">
<rect width="19.7893" height="19.7893" fill="white" transform="translate(0.228088 0.119629)"/>
</clipPath>
<clipPath id="clip1">
<rect width="19.7893" height="19.7893" fill="white" transform="translate(0.228088 0.119629)"/>
</clipPath>
</defs>
</svg>
