<svg width="24" height="24" viewBox="0 0 24 24" fill="none" xmlns="http://www.w3.org/2000/svg">
<path d="M1.81331 11.9601C3.90324 10.8089 6.23618 9.84815 8.41596 8.88244C12.166 7.30068 15.931 5.74633 19.734 4.29925C20.4739 4.05268 21.8033 3.81155 21.9337 4.90807C21.8623 6.46019 21.5687 8.00321 21.3673 9.54624C20.856 12.9395 20.2652 16.3211 19.689 19.7032C19.4904 20.8298 18.0792 21.413 17.1762 20.692C15.0061 19.2262 12.8193 17.7746 10.6769 16.2748C9.97515 15.5617 10.6259 14.5376 11.2527 14.0284C13.04 12.267 14.9356 10.7704 16.6295 8.91797C17.0864 7.81452 15.7364 8.74448 15.291 9.02941C12.8441 10.7156 10.4571 12.5048 7.87731 13.9867C6.55955 14.7121 5.02367 14.0922 3.70651 13.6874C2.5255 13.1984 0.794885 12.7058 1.81319 11.9602L1.81331 11.9601Z" fill="#1D3665"/>
</svg>
