<svg width="22" height="22" viewBox="0 0 22 22" fill="none" xmlns="http://www.w3.org/2000/svg">
<g clip-path="url(#clip0)">
<g clip-path="url(#clip1)">
<path d="M14.7445 0.0197754H6.73213C3.04511 0.0197754 0.0551758 3.00971 0.0551758 6.69673V14.7091C0.0551758 18.3961 3.04511 21.386 6.73213 21.386H14.7445C18.4315 21.386 21.4214 18.3961 21.4214 14.7091V6.69673C21.4214 3.00971 18.4315 0.0197754 14.7445 0.0197754ZM19.4183 14.7091C19.4183 17.2864 17.3218 19.3829 14.7445 19.3829H6.73213C4.15482 19.3829 2.05826 17.2864 2.05826 14.7091V6.69673C2.05826 4.11942 4.15482 2.02286 6.73213 2.02286H14.7445C17.3218 2.02286 19.4183 4.11942 19.4183 6.69673V14.7091Z" fill="#00FF73"/>
<path d="M10.7383 5.36121C7.78846 5.36121 5.39677 7.75289 5.39677 10.7028C5.39677 13.6526 7.78846 16.0443 10.7383 16.0443C13.6882 16.0443 16.0799 13.6526 16.0799 10.7028C16.0799 7.75289 13.6882 5.36121 10.7383 5.36121ZM10.7383 14.0412C8.89817 14.0412 7.39986 12.5429 7.39986 10.7028C7.39986 8.86126 8.89817 7.36429 10.7383 7.36429C12.5785 7.36429 14.0768 8.86126 14.0768 10.7028C14.0768 12.5429 12.5785 14.0412 10.7383 14.0412Z" fill="#00FF73"/>
<path d="M16.7476 5.36127C17.1163 5.36127 17.4153 5.06233 17.4153 4.69357C17.4153 4.32482 17.1163 4.02588 16.7476 4.02588C16.3788 4.02588 16.0799 4.32482 16.0799 4.69357C16.0799 5.06233 16.3788 5.36127 16.7476 5.36127Z" fill="#00FF73"/>
</g>
</g>
<defs>
<clipPath id="clip0">
<rect width="21.3662" height="21.3662" fill="white" transform="translate(0.0551758 0.0197754)"/>
</clipPath>
<clipPath id="clip1">
<rect width="21.3662" height="21.3662" fill="white" transform="translate(0.0551758 0.0197754)"/>
</clipPath>
</defs>
</svg>
