<svg width="25" height="25" viewBox="0 0 25 25" fill="none" xmlns="http://www.w3.org/2000/svg">
<path d="M1.55579 12.6444C3.81226 11.4015 6.33111 10.3641 8.68459 9.32146C12.7335 7.61365 16.7985 5.93544 20.9045 4.37305C21.7034 4.10683 23.1388 3.84648 23.2795 5.03038C23.2024 6.70618 22.8854 8.37217 22.668 10.0382C22.116 13.7018 21.478 17.3529 20.8559 21.0045C20.6416 22.2208 19.1179 22.8505 18.1429 22.0721C15.7999 20.4895 13.4388 18.9222 11.1257 17.3029C10.368 16.533 11.0706 15.4273 11.7474 14.8775C13.6772 12.9757 15.7237 11.3599 17.5527 9.35982C18.046 8.16844 16.5883 9.17251 16.1075 9.48014C13.4656 11.3007 10.8884 13.2324 8.10302 14.8325C6.68024 15.6157 5.02198 14.9464 3.59985 14.5093C2.32473 13.9814 0.456213 13.4495 1.55566 12.6445L1.55579 12.6444Z" fill="#00FF73"/>
</svg>
