<svg width="22" height="22" viewBox="0 0 22 22" fill="none" xmlns="http://www.w3.org/2000/svg">
<g clip-path="url(#clip0)">
<path d="M20.7131 5.44164C20.1335 4.41072 19.5045 4.22109 18.2239 4.14898C16.9446 4.06218 13.7276 4.02612 10.9407 4.02612C8.14837 4.02612 4.93008 4.06218 3.65211 4.14764C2.37415 4.22109 1.74384 4.40938 1.15894 5.44164C0.562022 6.47122 0.254883 8.24462 0.254883 11.3668C0.254883 11.3694 0.254883 11.3708 0.254883 11.3708C0.254883 11.3734 0.254883 11.3748 0.254883 11.3748V11.3774C0.254883 14.4862 0.562022 16.273 1.15894 17.2919C1.74384 18.3228 2.37281 18.5098 3.65078 18.5966C4.93008 18.6713 8.14837 18.7154 10.9407 18.7154C13.7276 18.7154 16.9446 18.6713 18.2252 18.5979C19.5059 18.5111 20.1348 18.3241 20.7144 17.2932C21.3167 16.2743 21.6211 14.4876 21.6211 11.3788C21.6211 11.3788 21.6211 11.3748 21.6211 11.3721C21.6211 11.3721 21.6211 11.3694 21.6211 11.3681C21.6211 8.24462 21.3167 6.47122 20.7131 5.44164ZM8.26722 15.3769V7.3646L14.9442 11.3708L8.26722 15.3769Z" fill="#00FF73"/>
</g>
<defs>
<clipPath id="clip0">
<rect width="21.3662" height="21.3662" fill="white" transform="translate(0.254883 0.0200195)"/>
</clipPath>
</defs>
</svg>
