<svg width="320" height="568" viewBox="0 0 320 568" fill="none" xmlns="http://www.w3.org/2000/svg">
<path d="M-59.2316 27.6839L-59.2312 27.6839C-55.1031 27.6229 -51.7761 28.2442 -48.9502 29.7571C-46.1266 31.2689 -43.756 33.6962 -41.5848 37.3296L-41.584 37.3309C-17.5155 77.3307 6.90845 117.152 31.3233 156.96C33.1919 160.006 35.0605 163.053 36.9289 166.099C67.6213 216.14 98.3391 266.13 129.062 316.129C137.551 329.944 146.041 343.76 154.53 357.578C155.995 359.962 157.255 361.774 158.424 362.981C159.588 364.183 160.741 364.865 161.988 364.805C163.221 364.747 164.381 363.97 165.581 362.681C166.79 361.383 168.116 359.482 169.673 357.006L169.673 357.005C183.012 335.738 196.378 314.495 209.742 293.254C225.842 267.664 241.94 242.077 257.988 216.456L264.477 206.106C299.591 150.102 334.691 94.1197 369.535 37.9548C371.833 34.2528 374.29 31.6879 377.231 30.052C380.172 28.4165 383.643 27.6845 388.013 27.7252H388.014C416.201 27.9026 444.397 27.9129 472.585 27.9232C496.745 27.9319 520.899 27.9407 545.036 28.0548H545.039C547.146 28.0548 549.261 28.5623 551.421 29.2227C552.175 29.4532 552.941 29.7048 553.713 29.9583C554.958 30.3674 556.219 30.7818 557.474 31.122C557.103 32.4408 556.798 33.8098 556.496 35.1616C556.305 36.0187 556.115 36.869 555.912 37.6951C555.338 40.0196 554.643 42.2136 553.47 44.1026C506.734 119.211 459.91 194.274 413.085 269.338C381.869 319.38 350.653 369.422 319.462 419.477C313.869 428.455 308.453 437.53 303.042 446.598C293.928 461.872 284.825 477.126 274.903 491.859L275.318 492.139L274.903 491.86C274.489 492.476 274.075 493.092 273.661 493.708C257.753 517.396 241.801 541.147 215.076 554.653C183.039 570.862 150.737 571.682 118.044 557.402C86.8948 543.75 68.8402 517.425 51.5383 489.445L51.1131 489.708L51.5383 489.445C3.90173 412.454 -44.1379 335.71 -92.1671 258.981C-109.301 231.61 -126.433 204.241 -143.545 176.864C-156.887 155.47 -170.238 134.105 -183.585 112.747C-198.671 88.6046 -213.752 64.4703 -228.811 40.311L-228.811 40.3104C-231.41 36.1552 -231.864 33.0803 -230.679 31.0746C-229.486 29.0556 -226.469 27.8281 -221.366 27.8076C-202.912 27.7526 -184.44 27.771 -165.973 27.7893C-156.742 27.7984 -147.511 27.8076 -138.285 27.8076C-130.754 27.8076 -123.226 27.8278 -115.698 27.848C-96.8791 27.8984 -78.0648 27.9489 -59.2316 27.6839ZM276.972 46.1747L276.971 46.176C262.026 67.0352 247.028 87.8389 232.03 108.643C220.778 124.251 209.526 139.859 198.296 155.492C189.026 168.35 179.88 181.29 170.736 194.269L170.735 194.27C169.237 196.405 167.966 197.977 166.814 199.016C165.663 200.055 164.683 200.513 163.764 200.526C162.847 200.539 161.872 200.11 160.723 199.106C159.573 198.101 158.303 196.566 156.805 194.472L156.805 194.472C121.627 145.397 86.4085 96.2808 51.1898 47.2058L51.1884 47.2039C51.0784 47.0521 50.9685 46.8999 50.8584 46.7475C49.7812 45.2563 48.6886 43.7437 47.3525 42.3691C44.1222 39.0365 42.7278 35.8093 42.7621 32.5607C42.7966 29.2954 44.2746 25.9162 46.9826 22.2908L46.9836 22.2895C59.0275 6.0593 70.8828 -10.2898 82.7441 -26.647C86.5435 -31.8867 90.3436 -37.1271 94.1506 -42.3648L94.151 -42.3653C100.828 -51.5729 107.5 -60.7804 114.172 -69.9878C127.505 -88.3875 140.838 -106.787 154.208 -125.186L154.208 -125.187C156.348 -128.14 158.11 -130.323 159.676 -131.767C161.246 -133.213 162.554 -133.858 163.79 -133.865C165.023 -133.872 166.317 -133.243 167.858 -131.817C169.398 -130.394 171.121 -128.235 173.209 -125.313C208.098 -76.4039 242.945 -27.4947 277.751 21.4969C279.343 23.7529 280.647 26.1763 282.037 28.7623C282.752 30.0914 283.49 31.4634 284.302 32.8776C283.485 34.3955 282.742 35.8731 282.022 37.3054C280.411 40.5064 278.915 43.4812 276.972 46.1747Z" stroke="url(#paint0_linear)" stroke-opacity="0.3"/>
<defs>
<linearGradient id="paint0_linear" x1="509.787" y1="917.826" x2="-39.4277" y2="150.046" gradientUnits="userSpaceOnUse">
<stop stop-color="#1D3665" stop-opacity="0"/>
<stop offset="0.479167" stop-color="#1D3665"/>
<stop offset="1" stop-color="#1D3665" stop-opacity="0"/>
</linearGradient>
</defs>
</svg>
