<svg width="60" height="54" viewBox="0 0 60 54" fill="none" xmlns="http://www.w3.org/2000/svg">
<path d="M13.549 13.7027L13.5496 13.7027C13.7817 13.6993 13.8986 13.7354 13.9684 13.7726C14.0346 13.8079 14.1255 13.8799 14.2403 14.0712L14.2415 14.0732C16.0332 17.0388 17.8513 19.991 19.6668 22.9392C19.8059 23.1651 19.9451 23.3911 20.0842 23.617L20.0842 23.617C22.3674 27.3245 24.6525 31.0282 26.9378 34.7323C27.569 35.7553 28.2001 36.7783 28.8313 37.8015L28.8313 37.8015C28.9438 37.9838 29.0715 38.1753 29.2166 38.3244C29.3557 38.4675 29.629 38.6934 30.0262 38.6746C30.4028 38.6568 30.6544 38.4269 30.7804 38.2921C30.9195 38.1433 31.0481 37.9534 31.1668 37.7654L31.1673 37.7646C32.1577 36.192 33.1517 34.6186 34.1459 33.0448C35.3442 31.1477 36.543 29.2502 37.7361 27.3529L38.2195 26.5851C40.8307 22.4372 43.4419 18.2893 46.0342 14.1277C46.1627 13.9216 46.2653 13.8342 46.347 13.789C46.428 13.7441 46.5553 13.7036 46.7969 13.7058L46.7992 13.7059C48.8915 13.719 50.9967 13.7198 53.0989 13.7205C54.8979 13.7212 56.6947 13.7219 58.4791 13.7303H58.4826C58.5002 13.7303 58.5213 13.7319 58.5478 13.7359C58.5322 13.7786 58.518 13.8077 58.5048 13.8289C55.0293 19.3917 51.5476 24.9506 48.0656 30.5099C45.7435 34.2174 43.4213 37.925 41.1007 41.6341L41.7366 42.0319L41.1007 41.6341C40.6685 42.325 40.2597 43.0076 39.8553 43.6828C39.1866 44.7993 38.5301 45.8955 37.8004 46.9746L37.8 46.9752L37.7502 47.049C36.5335 48.8523 35.44 50.473 33.6207 51.3887L33.6204 51.3889C31.4274 52.4939 29.2466 52.549 27.0084 51.5754C24.9151 50.6613 23.6718 48.8944 22.3833 46.8191L22.3832 46.8189C18.8391 41.1142 15.2648 35.4271 11.6923 29.743C10.4181 27.7157 9.14408 25.6887 7.87181 23.6614C6.87825 22.0747 5.88556 20.4926 4.89335 18.9112C3.80634 17.1787 2.71991 15.4471 1.63354 13.7115C2.9543 13.708 4.27522 13.7093 5.59732 13.7106C6.28429 13.7113 6.97158 13.712 7.65934 13.712C8.21527 13.712 8.77277 13.7135 9.33133 13.715C10.7333 13.7187 12.142 13.7225 13.549 13.7027Z" fill="url(#paint0_linear)" stroke="#333333" stroke-width="1.5"/>
<path d="M37.9672 13.9412L37.9658 13.9432C36.854 15.4886 35.7401 17.0275 34.6254 18.5675C33.789 19.7231 32.9521 20.8793 32.1154 22.0392C31.4432 22.9679 30.7802 23.9016 30.119 24.8361C27.5247 21.2314 24.9273 17.6237 22.3298 14.019L22.3298 14.019L22.3278 14.0162C22.3201 14.0056 22.312 13.9943 22.3034 13.9825C22.2266 13.8762 22.1145 13.7213 21.9763 13.5796L21.4395 14.1034L21.9769 13.5803C21.8331 13.4325 21.8371 13.3651 21.8375 13.359C21.8375 13.3588 21.8375 13.3587 21.8375 13.3586C21.8378 13.3308 21.852 13.2272 22.0089 13.0181L22.0103 13.0162C22.9086 11.8105 23.7936 10.595 24.6763 9.38262C24.9585 8.99503 25.2405 8.60775 25.5226 8.22121L25.5231 8.22053C26.0197 7.53839 26.5159 6.85648 27.0119 6.17467C28.0037 4.8116 28.9951 3.44898 29.9895 2.08603L29.9901 2.08519C30.0399 2.01672 30.0845 1.95733 30.1249 1.90589C30.1618 1.95386 30.2024 2.00876 30.2475 2.07155C32.842 5.69397 35.4332 9.31618 38.0213 12.9444C38.1175 13.0801 38.1811 13.199 38.2658 13.3573C38.2707 13.3664 38.2757 13.3757 38.2807 13.3851C38.2708 13.4048 38.2612 13.4239 38.2519 13.4426C38.1516 13.6423 38.0792 13.7866 37.9672 13.9412Z" stroke="#333333" stroke-width="1.5"/>
<defs>
<linearGradient id="paint0_linear" x1="54.858" y1="103.8" x2="30.0789" y2="53.0143" gradientUnits="userSpaceOnUse">
<stop stop-color="#C4C4C4"/>
<stop offset="1" stop-color="#C4C4C4" stop-opacity="0"/>
</linearGradient>
</defs>
</svg>
