<svg width="32" height="32" viewBox="0 0 32 32" fill="none" xmlns="http://www.w3.org/2000/svg">
<g clip-path="url(#clip0)">
<path fill-rule="evenodd" clip-rule="evenodd" d="M21.9198 12.9793C21.9198 16.03 19.4325 18.5031 16.3643 18.5031C13.296 18.5031 10.8087 16.03 10.8087 12.9793C10.8087 9.92858 13.296 7.45549 16.3643 7.45549C19.4325 7.45549 21.9198 9.92858 21.9198 12.9793ZM19.1421 12.9793C19.1421 14.5047 17.8984 15.7412 16.3643 15.7412C14.8302 15.7412 13.5865 14.5047 13.5865 12.9793C13.5865 11.4539 14.8302 10.2174 16.3643 10.2174C17.8984 10.2174 19.1421 11.4539 19.1421 12.9793Z" fill="white"/>
<path fill-rule="evenodd" clip-rule="evenodd" d="M7.36711 21.6049C2.36722 16.8719 2.17297 9.00487 6.93324 4.03354C11.6935 -0.937787 19.6057 -1.13093 24.6055 3.60215C29.6054 8.33523 29.7997 16.2022 25.0394 21.1735L16.4202 30.1749L7.36711 21.6049ZM23.0276 19.2691L16.3238 26.2702L9.28249 19.6046C5.39369 15.9233 5.24261 9.80458 8.94503 5.93799C12.6475 2.0714 18.8014 1.92118 22.6902 5.60246C26.579 9.28374 26.73 15.4025 23.0276 19.2691Z" fill="white"/>
<path fill-rule="evenodd" clip-rule="evenodd" d="M21.9198 12.9793C21.9198 16.03 19.4325 18.5031 16.3643 18.5031C13.296 18.5031 10.8087 16.03 10.8087 12.9793C10.8087 9.92858 13.296 7.45549 16.3643 7.45549C19.4325 7.45549 21.9198 9.92858 21.9198 12.9793ZM19.1421 12.9793C19.1421 14.5047 17.8984 15.7412 16.3643 15.7412C14.8302 15.7412 13.5865 14.5047 13.5865 12.9793C13.5865 11.4539 14.8302 10.2174 16.3643 10.2174C17.8984 10.2174 19.1421 11.4539 19.1421 12.9793Z" fill="#00FF73"/>
</g>
<defs>
<clipPath id="clip0">
<rect width="31" height="31" fill="white" transform="translate(0.486328 0.174927)"/>
</clipPath>
</defs>
</svg>
