<svg width="34" height="29" viewBox="0 0 34 29" fill="none" xmlns="http://www.w3.org/2000/svg">
<g clip-path="url(#clip0)">
<path fill-rule="evenodd" clip-rule="evenodd" d="M14.938 6.39413C14.478 5.86416 13.9416 5.40142 13.3499 5.01544C12.0423 4.16249 10.4643 3.68445 8.84126 3.68445C4.66836 3.68445 1.38965 6.90062 1.38965 10.9939C1.38965 12.4484 1.73614 13.8295 2.32967 15.1435C4.17059 19.2225 8.38842 22.6648 12.019 25.6278C13.0643 26.4809 14.0609 27.2942 14.938 28.0715C15.8152 27.2942 16.8118 26.4809 17.857 25.6278C21.4876 22.6648 25.7053 19.2227 27.5463 15.1437C28.1399 13.8297 28.4864 12.4484 28.4864 10.9939C28.4864 6.90062 25.2077 3.68445 21.0348 3.68445C19.4118 3.68445 17.8338 4.16249 16.5262 5.01544C15.9344 5.40142 15.3981 5.86416 14.938 6.39413ZM14.938 24.5082C15.3754 24.1458 15.8224 23.7803 16.2687 23.4154C16.6468 23.1062 17.0244 22.7975 17.3951 22.4914C18.8793 21.2661 20.3321 20.0211 21.6186 18.7164C23.2106 17.1019 24.3939 15.5479 25.0829 14.014C25.5373 13.0013 25.7767 11.9982 25.7767 10.9939C25.7767 8.44609 23.7606 6.39413 21.0348 6.39413C19.4247 6.39413 17.9221 7.09014 16.9842 8.17047L14.938 10.5275L12.8918 8.17047C11.954 7.09014 10.4514 6.39413 8.84126 6.39413C6.11544 6.39413 4.09933 8.44609 4.09933 10.9939C4.09933 11.9982 4.33878 13.0013 4.79319 14.014C5.4822 15.5479 6.66542 17.1019 8.25745 18.7164C9.54393 20.0211 10.9967 21.2661 12.4809 22.4914C12.8517 22.7975 13.2293 23.1062 13.6074 23.4154C14.0537 23.7803 14.5007 24.1458 14.938 24.5082Z" fill="white"/>
</g>
<path d="M12.4863 17.4965H16.1385L18.8776 10.9747L22.9863 20.9747L25.7255 13.1486L27.5515 17.4965H33.4863" stroke="#00FF73" stroke-width="2" stroke-linejoin="round"/>
<defs>
<clipPath id="clip0">
<rect width="28" height="28" fill="white" transform="translate(0.486328 0.974731)"/>
</clipPath>
</defs>
</svg>
