<svg width="32" height="32" viewBox="0 0 32 32" fill="none" xmlns="http://www.w3.org/2000/svg">
<path fill-rule="evenodd" clip-rule="evenodd" d="M16.4863 29.5551C24.2183 29.5551 30.4863 23.287 30.4863 15.5551C30.4863 7.82307 24.2183 1.55505 16.4863 1.55505C8.75434 1.55505 2.48633 7.82307 2.48633 15.5551C2.48633 23.287 8.75434 29.5551 16.4863 29.5551ZM16.4863 26.7551C22.6719 26.7551 27.6863 21.7406 27.6863 15.5551C27.6863 9.36946 22.6719 4.35505 16.4863 4.35505C10.3007 4.35505 5.28633 9.36946 5.28633 15.5551C5.28633 21.7406 10.3007 26.7551 16.4863 26.7551Z" fill="white"/>
<path d="M19.2641 12.6801C19.2641 12.0587 19.7616 11.5551 20.3752 11.5551C20.9889 11.5551 21.4863 12.0587 21.4863 12.6801V19.4301C21.4863 20.0514 20.9889 20.5551 20.3752 20.5551C19.7616 20.5551 19.2641 20.0514 19.2641 19.4301V12.6801Z" fill="#00FF73"/>
<path d="M18.153 16.0551L11.4863 19.9522V12.1579L18.153 16.0551Z" fill="#00FF73"/>
</svg>
