<svg width="793" height="418" viewBox="0 0 793 418" fill="none" xmlns="http://www.w3.org/2000/svg">
<path d="M2.26631 353.333L-4.64328 353.32L-4.65843 360.23L2.25115 360.244L2.26631 353.333Z" fill="#00FF73" fill-opacity="0.5"/>
<path d="M31.1603 353.358L24.2504 353.346L24.2358 360.257L31.1458 360.269L31.1603 353.358Z" fill="#00FF73" fill-opacity="0.5"/>
<path d="M60.348 353.368L53.4381 353.355L53.4236 360.266L60.3335 360.279L60.348 353.368Z" fill="#00FF73" fill-opacity="0.5"/>
<path d="M89.1806 353.363L82.271 353.35L82.2558 360.261L89.1654 360.274L89.1806 353.363Z" fill="#00FF73" fill-opacity="0.5"/>
<path d="M118.039 353.374L111.129 353.361L111.114 360.271L118.023 360.285L118.039 353.374Z" fill="#00FF73" fill-opacity="0.5"/>
<path d="M147.245 353.399L140.335 353.387L140.32 360.298L147.23 360.31L147.245 353.399Z" fill="#00FF73" fill-opacity="0.5"/>
<path d="M176.103 353.737L169.193 353.725L169.178 360.636L176.088 360.648L176.103 353.737Z" fill="#00FF73" fill-opacity="0.5"/>
<path d="M204.933 353.741L198.023 353.728L198.008 360.639L204.918 360.652L204.933 353.741Z" fill="#00FF73" fill-opacity="0.5"/>
<path d="M234.121 353.753L227.211 353.74L227.196 360.651L234.106 360.664L234.121 353.753Z" fill="#00FF73" fill-opacity="0.5"/>
<path d="M263.009 353.766L256.099 353.753L256.085 360.664L262.995 360.677L263.009 353.766Z" fill="#00FF73" fill-opacity="0.5"/>
<path d="M291.868 353.775L284.959 353.763L284.944 360.674L291.854 360.686L291.868 353.775Z" fill="#00FF73" fill-opacity="0.5"/>
<path d="M321.064 353.777L314.154 353.764L314.139 360.675L321.049 360.688L321.064 353.777Z" fill="#00FF73" fill-opacity="0.5"/>
<path d="M349.89 353.789L342.981 353.776L342.966 360.687L349.875 360.7L349.89 353.789Z" fill="#00FF73" fill-opacity="0.5"/>
<path d="M378.748 354.129L371.838 354.116L371.823 361.027L378.732 361.04L378.748 354.129Z" fill="#00FF73" fill-opacity="0.5"/>
<path d="M407.968 354.133L401.058 354.12L401.043 361.031L407.953 361.044L407.968 354.133Z" fill="#00FF73" fill-opacity="0.5"/>
<path d="M436.821 354.152L429.911 354.14L429.896 361.051L436.806 361.063L436.821 354.152Z" fill="#00FF73" fill-opacity="0.5"/>
<path d="M465.646 354.173L458.736 354.16L458.721 361.07L465.631 361.084L465.646 354.173Z" fill="#00FF73" fill-opacity="0.5"/>
<path d="M494.833 354.185L487.924 354.171L487.909 361.082L494.818 361.095L494.833 354.185Z" fill="#00FF73" fill-opacity="0.5"/>
<path d="M523.727 354.181L516.817 354.168L516.803 361.079L523.713 361.092L523.727 354.181Z" fill="#00FF73" fill-opacity="0.5"/>
<path d="M552.586 354.19L545.676 354.177L545.662 361.088L552.572 361.101L552.586 354.19Z" fill="#00FF73" fill-opacity="0.5"/>
<path d="M581.738 354.219L574.828 354.206L574.813 361.116L581.723 361.13L581.738 354.219Z" fill="#00FF73" fill-opacity="0.5"/>
<path d="M610.599 354.545L603.69 354.532L603.674 361.442L610.584 361.456L610.599 354.545Z" fill="#00FF73" fill-opacity="0.5"/>
<path d="M639.495 354.533L632.585 354.52L632.571 361.431L639.481 361.444L639.495 354.533Z" fill="#00FF73" fill-opacity="0.5"/>
<path d="M668.683 354.542L661.773 354.529L661.759 361.44L668.669 361.453L668.683 354.542Z" fill="#00FF73" fill-opacity="0.5"/>
<path d="M697.503 354.577L690.593 354.564L690.578 361.475L697.487 361.488L697.503 354.577Z" fill="#00FF73" fill-opacity="0.5"/>
<path d="M726.359 354.604L719.449 354.591L719.434 361.502L726.344 361.515L726.359 354.604Z" fill="#00FF73" fill-opacity="0.5"/>
<path d="M2.27328 382.215L-4.63663 382.203L-4.65117 389.114L2.25874 389.126L2.27328 382.215Z" fill="#00FF73" fill-opacity="0.5"/>
<path d="M31.1323 382.225L24.2224 382.212L24.2078 389.123L31.1177 389.136L31.1323 382.225Z" fill="#00FF73" fill-opacity="0.5"/>
<path d="M59.9916 382.234L53.0817 382.221L53.0672 389.132L59.9771 389.145L59.9916 382.234Z" fill="#00FF73" fill-opacity="0.5"/>
<path d="M89.1614 382.226L82.2518 382.213L82.2367 389.124L89.1463 389.137L89.1614 382.226Z" fill="#00FF73" fill-opacity="0.5"/>
<path d="M118.019 382.566L111.109 382.553L111.094 389.464L118.004 389.477L118.019 382.566Z" fill="#00FF73" fill-opacity="0.5"/>
<path d="M146.907 382.586L139.997 382.574L139.982 389.485L146.892 389.497L146.907 382.586Z" fill="#00FF73" fill-opacity="0.5"/>
<path d="M176.094 382.596L169.184 382.583L169.17 389.494L176.08 389.507L176.094 382.596Z" fill="#00FF73" fill-opacity="0.5"/>
<path d="M204.913 382.605L198.004 382.592L197.989 389.502L204.898 389.515L204.913 382.605Z" fill="#00FF73" fill-opacity="0.5"/>
<path d="M233.772 382.616L226.863 382.603L226.847 389.514L233.757 389.527L233.772 382.616Z" fill="#00FF73" fill-opacity="0.5"/>
<path d="M262.992 382.63L256.082 382.617L256.067 389.528L262.977 389.541L262.992 382.63Z" fill="#00FF73" fill-opacity="0.5"/>
<path d="M291.851 382.639L284.941 382.627L284.926 389.538L291.836 389.55L291.851 382.639Z" fill="#00FF73" fill-opacity="0.5"/>
<path d="M320.676 382.979L313.766 382.966L313.751 389.877L320.661 389.89L320.676 382.979Z" fill="#00FF73" fill-opacity="0.5"/>
<path d="M349.863 382.991L342.954 382.978L342.938 389.888L349.848 389.901L349.863 382.991Z" fill="#00FF73" fill-opacity="0.5"/>
<path d="M378.763 382.987L371.853 382.974L371.838 389.885L378.748 389.898L378.763 382.987Z" fill="#00FF73" fill-opacity="0.5"/>
<path d="M407.622 382.995L400.712 382.983L400.697 389.894L407.607 389.906L407.622 382.995Z" fill="#00FF73" fill-opacity="0.5"/>
<path d="M436.774 383.014L429.864 383.001L429.849 389.912L436.759 389.925L436.774 383.014Z" fill="#00FF73" fill-opacity="0.5"/>
<path d="M465.632 383.025L458.722 383.012L458.707 389.922L465.617 389.935L465.632 383.025Z" fill="#00FF73" fill-opacity="0.5"/>
<path d="M494.485 383.047L487.575 383.034L487.56 389.945L494.47 389.958L494.485 383.047Z" fill="#00FF73" fill-opacity="0.5"/>
<path d="M523.709 383.373L516.799 383.361L516.785 390.272L523.695 390.285L523.709 383.373Z" fill="#00FF73" fill-opacity="0.5"/>
<path d="M552.568 383.383L545.658 383.37L545.643 390.281L552.553 390.294L552.568 383.383Z" fill="#00FF73" fill-opacity="0.5"/>
<path d="M581.389 383.41L574.479 383.397L574.464 390.308L581.374 390.321L581.389 383.41Z" fill="#00FF73" fill-opacity="0.5"/>
<path d="M610.576 383.422L603.667 383.409L603.652 390.32L610.561 390.333L610.576 383.422Z" fill="#00FF73" fill-opacity="0.5"/>
<path d="M639.474 383.411L632.564 383.399L632.55 390.31L639.46 390.322L639.474 383.411Z" fill="#00FF73" fill-opacity="0.5"/>
<path d="M668.333 383.421L661.423 383.408L661.409 390.319L668.319 390.332L668.333 383.421Z" fill="#00FF73" fill-opacity="0.5"/>
<path d="M697.484 383.44L690.574 383.427L690.559 390.338L697.468 390.351L697.484 383.44Z" fill="#00FF73" fill-opacity="0.5"/>
<path d="M726.342 383.451L719.432 383.438L719.417 390.348L726.327 390.361L726.342 383.451Z" fill="#00FF73" fill-opacity="0.5"/>
<path d="M2.25547 411.079L-4.65445 411.067L-4.669 417.978L2.24093 417.99L2.25547 411.079Z" fill="#00FF73" fill-opacity="0.5"/>
<path d="M31.1141 411.417L24.2042 411.405L24.1896 418.316L31.0995 418.329L31.1141 411.417Z" fill="#00FF73" fill-opacity="0.5"/>
<path d="M59.9436 411.411L53.034 411.398L53.0189 418.309L59.9284 418.322L59.9436 411.411Z" fill="#00FF73" fill-opacity="0.5"/>
<path d="M89.131 411.423L82.2214 411.41L82.2063 418.32L89.1158 418.333L89.131 411.423Z" fill="#00FF73" fill-opacity="0.5"/>
<path d="M118.02 411.446L111.111 411.433L111.096 418.345L118.006 418.357L118.02 411.446Z" fill="#00FF73" fill-opacity="0.5"/>
<path d="M146.879 411.455L139.969 411.443L139.955 418.354L146.865 418.366L146.879 411.455Z" fill="#00FF73" fill-opacity="0.5"/>
<path d="M176.045 411.451L169.136 411.438L169.12 418.348L176.03 418.362L176.045 411.451Z" fill="#00FF73" fill-opacity="0.5"/>
<path d="M204.904 411.462L197.994 411.448L197.979 418.359L204.888 418.372L204.904 411.462Z" fill="#00FF73" fill-opacity="0.5"/>
<path d="M233.762 411.472L226.852 411.459L226.837 418.37L233.746 418.383L233.762 411.472Z" fill="#00FF73" fill-opacity="0.5"/>
<path d="M262.973 411.823L256.063 411.81L256.048 418.721L262.958 418.734L262.973 411.823Z" fill="#00FF73" fill-opacity="0.5"/>
<path d="M291.832 411.832L284.922 411.82L284.908 418.731L291.818 418.743L291.832 411.832Z" fill="#00FF73" fill-opacity="0.5"/>
<path d="M320.656 411.842L313.747 411.829L313.731 418.74L320.641 418.753L320.656 411.842Z" fill="#00FF73" fill-opacity="0.5"/>
<path d="M349.844 411.854L342.934 411.841L342.919 418.752L349.829 418.765L349.844 411.854Z" fill="#00FF73" fill-opacity="0.5"/>
<path d="M378.738 411.861L371.828 411.848L371.814 418.759L378.723 418.772L378.738 411.861Z" fill="#00FF73" fill-opacity="0.5"/>
<path d="M407.597 411.87L400.687 411.857L400.673 418.768L407.583 418.781L407.597 411.87Z" fill="#00FF73" fill-opacity="0.5"/>
<path d="M436.748 411.889L429.839 411.875L429.824 418.786L436.733 418.799L436.748 411.889Z" fill="#00FF73" fill-opacity="0.5"/>
<path d="M465.612 412.217L458.703 412.204L458.688 419.114L465.597 419.128L465.612 412.217Z" fill="#00FF73" fill-opacity="0.5"/>
<path d="M494.509 412.215L487.599 412.202L487.585 419.113L494.494 419.126L494.509 412.215Z" fill="#00FF73" fill-opacity="0.5"/>
<path d="M523.697 412.224L516.787 412.212L516.772 419.123L523.682 419.135L523.697 412.224Z" fill="#00FF73" fill-opacity="0.5"/>
<path d="M552.516 412.249L545.606 412.236L545.591 419.147L552.501 419.16L552.516 412.249Z" fill="#00FF73" fill-opacity="0.5"/>
<path d="M581.369 412.274L574.459 412.261L574.444 419.172L581.354 419.185L581.369 412.274Z" fill="#00FF73" fill-opacity="0.5"/>
<path d="M610.597 412.266L603.688 412.253L603.673 419.164L610.583 419.177L610.597 412.266Z" fill="#00FF73" fill-opacity="0.5"/>
<path d="M639.456 412.275L632.546 412.262L632.532 419.174L639.442 419.186L639.456 412.275Z" fill="#00FF73" fill-opacity="0.5"/>
<path d="M668.315 412.614L661.405 412.601L661.39 419.512L668.3 419.525L668.315 412.614Z" fill="#00FF73" fill-opacity="0.5"/>
<path d="M697.46 412.649L690.551 412.636L690.536 419.547L697.445 419.56L697.46 412.649Z" fill="#00FF73" fill-opacity="0.5"/>
<path d="M726.319 412.66L719.409 412.647L719.394 419.558L726.304 419.571L726.319 412.66Z" fill="#00FF73" fill-opacity="0.5"/>
</svg>
