<svg width="104" height="101" viewBox="0 0 104 101" fill="none" xmlns="http://www.w3.org/2000/svg">
<path d="M51.6859 84.2993L51.6825 84.2999C50.6435 84.4819 49.2379 84.2123 47.4952 83.4076C45.7726 82.6122 43.8292 81.3443 41.7657 79.6921C37.6413 76.3897 33.1419 71.6364 29.1095 66.3433C25.077 61.05 21.5436 55.2591 19.3249 49.8969C17.0859 44.4858 16.27 39.7132 17.3771 36.3391L17.3786 36.3346C18.4833 32.9136 21.2757 29.891 25.3116 27.4774C29.3399 25.0684 34.5292 23.3161 40.2603 22.4087C51.7373 20.5915 65.1804 22.1922 75.5013 28.4152L75.5027 28.416C80.8717 31.641 83.1872 36.4353 83.3922 41.9473C83.5993 47.5153 81.6449 53.832 78.3803 59.9111C75.1223 65.9782 70.6031 71.726 65.7926 76.1402C60.9597 80.5749 55.936 83.5696 51.6859 84.2993Z" stroke="#00FF73" stroke-width="2"/>
<g filter="url(#filter0_d)">
<path d="M53.1167 17.0615C43.3409 15.3595 16.0827 48.4068 20.5782 62.0229C25.0023 75.6389 55.8996 81.3832 75.3086 69.7528C96.2161 57.2714 69.7428 19.8982 53.1167 17.0615Z" fill="url(#paint0_linear)"/>
</g>
<g filter="url(#filter1_d)">
<g clip-path="url(#clip0)">
<path d="M61.8382 46.8669V46.2402C61.8382 40.8099 57.3223 36.4154 51.7405 36.4154C46.1726 36.4154 41.6428 40.8228 41.6428 46.2402V46.8669C39.428 47.478 37.7361 49.5359 37.8733 52.0235C38.0216 54.7121 40.3397 56.8153 43.0672 56.8153C44.4113 56.8153 45.5011 55.7598 45.5011 54.4512V49.0383C45.5011 47.7996 44.5193 46.7782 43.2752 46.6826V46.2403C43.2752 41.6986 47.0727 38.0037 51.7405 38.0037C56.4195 38.0037 60.2058 41.6872 60.2058 46.2403V46.6824C58.9631 46.7768 57.9799 47.7987 57.9799 49.0384V54.4513C57.9799 55.6899 58.9573 56.7045 60.2058 56.8063C60.2058 58.9557 58.476 60.4506 56.5358 60.4506H54.7591C54.4326 59.6456 53.6256 59.0742 52.6836 59.0742H50.7973C49.5673 59.0742 48.5665 60.0479 48.5665 61.2447C48.5665 62.4416 49.5673 63.4153 50.7973 63.4153H52.6836C53.6256 63.4153 54.4326 62.8439 54.7591 62.0389H56.5357C59.4595 62.0389 61.8381 59.7243 61.8381 56.8792V56.6188C63.9207 56.0348 65.487 54.2122 65.6076 52.0236C65.7444 49.5444 64.0607 47.4802 61.8382 46.8669ZM43.8688 49.0383V54.4512C43.8688 54.8524 43.5518 55.2365 43.0042 55.2264C41.1408 55.1909 39.603 53.7466 39.5033 51.9384C39.3922 49.9259 41.0305 48.2628 43.0765 48.2628H43.0905C43.5196 48.2643 43.8688 48.6123 43.8688 49.0383ZM52.6836 61.827H50.7974C50.4674 61.827 50.1989 61.5658 50.1989 61.2447C50.1989 60.9236 50.4674 60.6623 50.7974 60.6623H52.6836C53.0142 60.6623 53.2829 60.9245 53.2821 61.2462C53.2812 61.5666 53.0131 61.827 52.6836 61.827ZM63.9777 51.9384C63.878 53.7466 62.3402 55.1909 60.4769 55.2264C59.9392 55.237 59.6122 54.861 59.6122 54.4512V49.0383C59.6122 48.6123 59.9613 48.2643 60.3874 48.2628H60.4044C62.4507 48.2628 64.0888 49.9261 63.9777 51.9384Z" fill="#00FF73" stroke="#00FF73"/>
</g>
</g>
<defs>
<filter id="filter0_d" x="0.0817566" y="0.998169" width="102.932" height="99.0102" filterUnits="userSpaceOnUse" color-interpolation-filters="sRGB">
<feFlood flood-opacity="0" result="BackgroundImageFix"/>
<feColorMatrix in="SourceAlpha" type="matrix" values="0 0 0 0 0 0 0 0 0 0 0 0 0 0 0 0 0 0 127 0"/>
<feOffset dy="4"/>
<feGaussianBlur stdDeviation="10"/>
<feColorMatrix type="matrix" values="0 0 0 0 0.117647 0 0 0 0 0.215686 0 0 0 0 0.396078 0 0 0 0.2 0"/>
<feBlend mode="normal" in2="BackgroundImageFix" result="effect1_dropShadow"/>
<feBlend mode="normal" in="SourceGraphic" in2="effect1_dropShadow" result="shape"/>
</filter>
<filter id="filter1_d" x="16.365" y="19.2897" width="70" height="70" filterUnits="userSpaceOnUse" color-interpolation-filters="sRGB">
<feFlood flood-opacity="0" result="BackgroundImageFix"/>
<feColorMatrix in="SourceAlpha" type="matrix" values="0 0 0 0 0 0 0 0 0 0 0 0 0 0 0 0 0 0 127 0"/>
<feOffset dy="4"/>
<feGaussianBlur stdDeviation="10"/>
<feColorMatrix type="matrix" values="0 0 0 0 0 0 0 0 0 1 0 0 0 0 0.45098 0 0 0 0.2 0"/>
<feBlend mode="normal" in2="BackgroundImageFix" result="effect1_dropShadow"/>
<feBlend mode="normal" in="SourceGraphic" in2="effect1_dropShadow" result="shape"/>
</filter>
<linearGradient id="paint0_linear" x1="10.1559" y1="11.4794" x2="69.9652" y2="71.0294" gradientUnits="userSpaceOnUse">
<stop stop-color="#1D3665"/>
<stop offset="1" stop-color="#1D3665"/>
</linearGradient>
<clipPath id="clip0">
<rect width="30" height="30" fill="white" transform="translate(36.365 35.2897)"/>
</clipPath>
</defs>
</svg>
