<svg width="105" height="102" viewBox="0 0 105 102" fill="none" xmlns="http://www.w3.org/2000/svg">
<path d="M53.4622 85.5048L53.4589 85.5054C52.4199 85.6874 51.0143 85.4178 49.2716 84.6131C47.549 83.8177 45.6055 82.5498 43.5421 80.8976C39.4176 77.5952 34.9183 72.842 30.8858 67.5488C26.8534 62.2555 23.32 56.4646 21.1012 51.1024C18.8623 45.6914 18.0463 40.9187 19.1535 37.5446L19.1549 37.5402C20.2596 34.1191 23.052 31.0965 27.088 28.6829C31.1163 26.274 36.3055 24.5217 42.0367 23.6142C53.5137 21.797 66.9567 23.3978 77.2777 29.6207L77.2791 29.6215C82.648 32.8466 84.9636 37.6408 85.1686 43.1529C85.3757 48.7208 83.4212 55.0375 80.1567 61.1166C76.8986 67.1837 72.3794 72.9315 67.5689 77.3457C62.736 81.7804 57.7124 84.7751 53.4622 85.5048Z" stroke="#00FF73" stroke-width="2"/>
<g filter="url(#filter0_d)">
<path d="M56.4235 16.2137C66.6837 15.7572 90.3025 53.281 83.8899 66.6651C77.5506 80.0586 45.0743 81.8761 26.6854 67.3742C6.87068 51.801 38.9814 16.9305 56.4235 16.2137Z" fill="#1D3665"/>
</g>
<g clip-path="url(#clip0)">
<path d="M45.1472 54.9654V44.9633H46.7662V49.299H51.5278V44.9633H53.1468V54.9654H51.5278V50.873H46.7662V54.9654H45.1472Z" fill="#00FF73"/>
<path d="M56.8755 54.9665H55.1469L59.3729 44.964H61.1022L65.3278 54.9658H63.5995L62.6389 52.6897H57.8361L56.8758 54.9662L56.8755 54.9665ZM60.2373 47.0097L58.4949 51.1297H61.9805L60.2373 47.0097Z" fill="#00FF73"/>
<path d="M74.5177 44.9633V52.4327L68.9469 44.9633H67.3279V54.9654H68.9469V47.6675L74.3807 54.9647H76.137V44.9633H74.5177Z" fill="#00FF73"/>
<path d="M25.7865 46.4803V44.9629H30.7228V53.133C30.7446 53.8316 30.5732 54.5221 30.2287 55.1232C29.9438 55.6087 29.5367 56.0049 29.051 56.2694C28.5653 56.5338 28.0192 56.6566 27.4713 56.6246C26.8835 56.6349 26.3007 56.5107 25.7646 56.261C25.2285 56.0112 24.7522 55.642 24.3698 55.1798L25.3305 53.9207C25.943 54.6363 26.601 54.994 27.3043 54.994C27.7545 54.9933 28.1905 54.8314 28.5385 54.5359C28.7263 54.3786 28.8753 54.1773 28.973 53.9486C29.0708 53.7199 29.1146 53.4704 29.1008 53.2207V46.4803H25.7865Z" fill="#00FF73"/>
<path d="M37.9363 55.3027C37.2415 55.31 36.5517 55.1804 35.9037 54.9208C35.2759 54.6588 34.7052 54.269 34.2256 53.7745C33.7411 53.2877 33.3581 52.7033 33.1001 52.0574C32.8448 51.3909 32.7174 50.6793 32.725 49.9624C32.7174 49.2456 32.8448 48.534 33.1001 47.8675C33.3584 47.2227 33.7415 46.6394 34.2256 46.1535C34.7052 45.6589 35.2758 45.2689 35.9037 45.0069C36.5517 44.7473 37.2415 44.6176 37.9363 44.625C38.6309 44.6176 39.3206 44.7472 39.9685 45.0069C40.5963 45.2689 41.1668 45.6589 41.6462 46.1535C42.1307 46.6402 42.5138 47.2245 42.7718 47.8703C43.0271 48.5368 43.1545 49.2483 43.1468 49.9652C43.1544 50.6821 43.027 51.3937 42.7718 52.0602C42.5138 52.7062 42.1307 53.2907 41.6462 53.7776C41.1668 54.2722 40.5962 54.662 39.9685 54.9239C39.3204 55.1825 38.6307 55.3111 37.9363 55.3027ZM37.9363 46.2206C37.4712 46.2125 37.0097 46.3056 36.5816 46.4938C36.1534 46.6821 35.7683 46.9613 35.451 47.3134C35.1212 47.664 34.8617 48.0788 34.6876 48.5337C34.5136 48.9887 34.4283 49.4749 34.4368 49.9642C34.4281 50.4533 34.5131 50.9394 34.6867 51.3945C34.8604 51.8495 35.1194 52.2644 35.4487 52.6153C35.7658 52.9673 36.1508 53.2464 36.5787 53.4346C37.0066 53.6228 37.468 53.7159 37.9329 53.7078C38.3979 53.7157 38.8594 53.6226 39.2876 53.4344C39.7157 53.2462 40.1009 52.9672 40.4184 52.6153C40.7479 52.2645 41.007 51.8496 41.1807 51.3946C41.3543 50.9395 41.4392 50.4534 41.4303 49.9642C41.4392 49.4751 41.3543 48.989 41.1806 48.534C41.0069 48.079 40.7479 47.6642 40.4184 47.3134C40.1017 46.9615 39.717 46.6824 39.2895 46.4942C38.8619 46.3059 38.4009 46.2127 37.9363 46.2206Z" fill="#00FF73"/>
</g>
<defs>
<filter id="filter0_d" x="0.437454" y="0.209549" width="104.539" height="101.292" filterUnits="userSpaceOnUse" color-interpolation-filters="sRGB">
<feFlood flood-opacity="0" result="BackgroundImageFix"/>
<feColorMatrix in="SourceAlpha" type="matrix" values="0 0 0 0 0 0 0 0 0 0 0 0 0 0 0 0 0 0 127 0"/>
<feOffset dy="4"/>
<feGaussianBlur stdDeviation="10"/>
<feColorMatrix type="matrix" values="0 0 0 0 0.113725 0 0 0 0 0.211765 0 0 0 0 0.396078 0 0 0 0.2 0"/>
<feBlend mode="normal" in2="BackgroundImageFix" result="effect1_dropShadow"/>
<feBlend mode="normal" in="SourceGraphic" in2="effect1_dropShadow" result="shape"/>
</filter>
<clipPath id="clip0">
<rect width="50" height="12" fill="white" transform="translate(27.7712 44.6249)"/>
</clipPath>
</defs>
</svg>
