<svg width="106" height="102" viewBox="0 0 106 102" fill="none" xmlns="http://www.w3.org/2000/svg">
<path d="M54.0152 86.5812L54.0119 86.5818C52.9729 86.7638 51.5673 86.4943 49.8246 85.6896C48.102 84.8942 46.1585 83.6263 44.0951 81.9741C39.9706 78.6717 35.4713 73.9184 31.4388 68.6252C27.4064 63.332 23.873 57.5411 21.6542 52.1788C19.4153 46.7678 18.5993 41.9952 19.7065 38.6211L19.7079 38.6166C20.8126 35.1956 23.6051 32.173 27.641 29.7594C31.6693 27.3504 36.8585 25.5981 42.5897 24.6907C54.0667 22.8735 67.5097 24.4742 77.8307 30.6971L77.8321 30.698C83.201 33.923 85.5166 38.7173 85.7216 44.2293C85.9287 49.7973 83.9742 56.1139 80.7097 62.193C77.4516 68.2601 72.9324 74.0079 68.1219 78.4221C63.2891 82.8569 58.2654 85.8516 54.0152 86.5812Z" stroke="#00FF73" stroke-width="2"/>
<g filter="url(#filter0_d)">
<path d="M54.9267 16.9718C44.8161 15.2115 16.6243 49.3906 21.2737 63.473C25.8494 77.5554 57.8049 83.4965 77.8786 71.4677C99.5022 58.5589 72.1222 19.9056 54.9267 16.9718Z" fill="url(#paint0_linear)"/>
</g>
<g clip-path="url(#clip0)">
<path d="M47.4415 51.7787C47.6598 54.4562 45.3686 56.8165 42.5935 56.8987C39.6607 56.986 37.5384 54.5305 38.1177 51.7787C41.2261 51.7787 44.3336 51.7787 47.4415 51.7787Z" fill="#00FF73"/>
<path d="M47.1505 50.5545C46.4653 48.8662 44.7684 47.856 42.9095 47.9025C41.0739 47.9482 39.3992 49.0002 38.5666 50.5545C41.4277 50.5545 44.2891 50.5545 47.1505 50.5545Z" fill="#00FF73"/>
<path d="M28.7219 51.7787C30.3925 51.7787 32.0631 51.7787 33.7332 51.7787C34.0794 51.7787 34.38 51.5092 34.4118 51.1782C34.4449 50.8325 34.1737 50.5547 33.8119 50.5547C31.8125 50.5547 29.8129 50.5547 27.8135 50.5547C28.0672 49.8462 28.3215 49.1375 28.5755 48.429C28.6406 48.2472 28.8237 48.118 29.0254 48.118C30.7856 48.118 32.5458 48.118 34.306 48.118C36.1046 48.118 37.4545 49.537 37.2878 51.2545C37.1291 52.8997 35.6343 54.2065 33.9137 54.2075C32.8139 54.208 31.7143 54.2082 30.6147 54.2085C30.3081 54.2087 30.0439 54.3937 29.9501 54.6557C29.7503 55.2127 29.5505 55.7707 29.3505 56.328C29.2853 56.5097 29.1035 56.6392 28.9019 56.6392C28.0914 56.6392 27.2805 56.6392 26.4703 56.6392C26.0395 56.6392 25.774 56.247 25.9123 55.8605C26.2518 54.9127 26.5917 53.9647 26.9314 53.0162C27.1914 52.2902 27.9151 51.7787 28.7219 51.7787Z" fill="#00FF73"/>
<path d="M75.2274 56.639C75.0403 55.967 74.8522 55.2947 74.6649 54.622C74.5943 54.3667 74.3703 54.208 74.0981 54.208C73.8383 54.2082 73.5786 54.2082 73.3186 54.2082C73.0123 54.2085 72.7476 54.3935 72.6538 54.6555C72.4546 55.2125 72.2547 55.7705 72.0549 56.3277C71.9896 56.5095 71.8075 56.639 71.6058 56.639C70.7959 56.639 69.9845 56.639 69.1745 56.639C68.7437 56.639 68.478 56.2467 68.6163 55.8602C68.9565 54.9125 69.2954 53.9645 69.6356 53.016C69.8956 52.2902 70.6188 51.7787 71.4256 51.7787C73.0962 51.7787 74.7665 51.7787 76.4371 51.7787C76.7833 51.7787 77.0837 51.5092 77.1158 51.1782C77.1488 50.8325 76.8774 50.5547 76.5153 50.5547C74.5159 50.5547 72.5166 50.5547 70.5174 50.5547C70.7712 49.8462 71.0252 49.1375 71.2792 48.429C71.344 48.2472 71.5266 48.118 71.7296 48.118C73.4893 48.118 75.25 48.118 77.0097 48.118C78.808 48.118 80.1587 49.537 79.9917 51.2545C79.88 52.4147 79.1037 53.406 78.0523 53.8907C78.3083 54.8032 78.5639 55.7165 78.8202 56.6392C77.6227 56.639 76.4252 56.639 75.2274 56.639Z" fill="#00FF73"/>
<path d="M53.1712 50.5545C53.3973 49.9232 53.6242 49.2915 53.8501 48.6597C53.9467 48.3915 53.7584 48.1177 53.459 48.1177C52.5699 48.1177 51.6811 48.1177 50.792 48.1177C50.5904 48.1177 50.4075 48.247 50.3421 48.4287C50.0881 49.1372 49.8341 49.846 49.5801 50.5545C50.7774 50.5545 51.9742 50.5545 53.1712 50.5545Z" fill="#00FF73"/>
<path d="M55.3886 56.639C53.0045 56.639 50.6209 56.639 48.237 56.639C47.8064 56.639 47.5407 56.2467 47.6793 55.8602C48.1672 54.5 48.6543 53.1392 49.142 51.7787C50.3388 51.7787 51.536 51.7787 52.7331 51.7787C52.5658 52.245 52.3991 52.711 52.2318 53.1767C52.0935 53.5635 52.3652 53.956 52.7953 53.956C53.8108 53.956 54.8265 53.956 55.8422 53.956C56.2725 53.956 56.5474 54.3475 56.409 54.7332C56.2186 55.2645 56.0279 55.7962 55.838 56.3277C55.7718 56.5095 55.5897 56.639 55.3886 56.639Z" fill="#00FF73"/>
<path d="M63.6471 48.281C62.9888 49.039 62.3303 49.797 61.6714 50.5545C63.445 50.5545 65.2192 50.5545 66.9938 50.5545C66.9274 49.8615 66.8607 49.168 66.7943 48.4745C66.7739 48.265 66.5955 48.1177 66.3772 48.1177C65.5884 48.1177 64.7993 48.1177 64.0102 48.1177C63.8696 48.1177 63.737 48.178 63.6471 48.281Z" fill="#00FF73"/>
<path d="M64.3667 56.639C65.2636 56.639 66.16 56.639 67.0569 56.639C67.327 56.639 67.5542 56.403 67.5292 56.1427C67.3898 54.6882 67.251 53.2332 67.1113 51.7787C64.9432 51.7787 62.776 51.7787 60.6084 51.7787C59.4869 53.0695 58.3654 54.36 57.2437 55.651C56.9025 56.043 57.1411 56.639 57.6876 56.639C58.4006 56.639 59.1131 56.639 59.8253 56.639C59.9665 56.639 60.1001 56.5717 60.1892 56.469C60.7782 55.792 61.3662 55.1147 61.9547 54.4377C62.0836 54.2887 62.2764 54.2075 62.4785 54.2075C62.7195 54.2075 62.9597 54.2075 63.2004 54.2075C63.5138 54.2075 63.7712 54.4157 63.8001 54.7172C63.8498 55.2365 63.8999 55.7557 63.9491 56.2745C63.9697 56.4842 64.1484 56.639 64.3667 56.639Z" fill="#00FF73"/>
<rect x="-419.014" y="-438.257" width="1973.2" height="1018.77" fill="url(#paint1_linear)"/>
<rect x="-419.014" y="-438.257" width="1973.2" height="1018.77" fill="url(#paint2_linear)"/>
<rect x="-419.014" y="-438.257" width="1973.2" height="1018.77" fill="url(#paint3_linear)"/>
</g>
<defs>
<filter id="filter0_d" x="0.760315" y="0.906281" width="105.088" height="101.031" filterUnits="userSpaceOnUse" color-interpolation-filters="sRGB">
<feFlood flood-opacity="0" result="BackgroundImageFix"/>
<feColorMatrix in="SourceAlpha" type="matrix" values="0 0 0 0 0 0 0 0 0 0 0 0 0 0 0 0 0 0 127 0"/>
<feOffset dy="4"/>
<feGaussianBlur stdDeviation="10"/>
<feColorMatrix type="matrix" values="0 0 0 0 0.113725 0 0 0 0 0.211765 0 0 0 0 0.396078 0 0 0 0.2 0"/>
<feBlend mode="normal" in2="BackgroundImageFix" result="effect1_dropShadow"/>
<feBlend mode="normal" in="SourceGraphic" in2="effect1_dropShadow" result="shape"/>
</filter>
<linearGradient id="paint0_linear" x1="10.4945" y1="11.1985" x2="72.3522" y2="72.788" gradientUnits="userSpaceOnUse">
<stop stop-color="#1D3665"/>
<stop offset="1" stop-color="#1D3665"/>
</linearGradient>
<linearGradient id="paint1_linear" x1="567.588" y1="1273.51" x2="567.588" y2="71.1268" gradientUnits="userSpaceOnUse">
<stop stop-color="white"/>
<stop offset="1" stop-color="white" stop-opacity="0"/>
</linearGradient>
<linearGradient id="paint2_linear" x1="567.588" y1="1273.51" x2="567.588" y2="71.1268" gradientUnits="userSpaceOnUse">
<stop stop-color="white"/>
<stop offset="1" stop-color="white" stop-opacity="0"/>
</linearGradient>
<linearGradient id="paint3_linear" x1="567.588" y1="1273.51" x2="567.588" y2="71.1268" gradientUnits="userSpaceOnUse">
<stop stop-color="white"/>
<stop offset="1" stop-color="white" stop-opacity="0"/>
</linearGradient>
<clipPath id="clip0">
<rect width="62" height="10" fill="white" transform="translate(25.384 47.422)"/>
</clipPath>
</defs>
</svg>
