<svg width="135" height="38" viewBox="0 0 135 38" fill="none" xmlns="http://www.w3.org/2000/svg">
<path d="M9.64507 9.59603L9.64543 9.59603C9.81425 9.59354 9.90374 9.61967 9.96014 9.64974C10.0142 9.67854 10.0829 9.73495 10.1669 9.8749L10.1677 9.8762C11.4433 11.9875 12.7376 14.0893 14.0302 16.1883C14.1293 16.3493 14.2284 16.5101 14.3275 16.671L14.3275 16.6711C15.9533 19.3111 17.5805 21.9484 19.2078 24.586C19.657 25.3141 20.1061 26.0421 20.5553 26.7702L20.5553 26.7702C20.6352 26.8997 20.7245 27.0334 20.825 27.1367C20.9216 27.236 21.1072 27.3884 21.3755 27.3758C21.6301 27.3637 21.8013 27.2082 21.8893 27.1142C21.986 27.0108 22.0761 26.8779 22.1605 26.7442L22.1608 26.7437C22.8661 25.6239 23.5737 24.5036 24.2816 23.3832C25.1348 22.0325 25.9882 20.6816 26.8377 19.3307L27.183 18.7822C29.0418 15.8296 30.9005 12.877 32.7458 9.91469C32.8393 9.76462 32.9161 9.69754 32.9809 9.66169C33.0451 9.6261 33.142 9.5966 33.318 9.59824L33.3195 9.59824C34.8094 9.60759 36.3079 9.60814 37.8044 9.6087C39.0852 9.60918 40.3644 9.60965 41.6354 9.61564H41.6378C41.6606 9.61564 41.6894 9.61889 41.7288 9.62749C41.7122 9.68056 41.6971 9.71422 41.6824 9.7378L42.1068 10.0023L41.6827 9.73737C39.2081 13.6982 36.729 17.6563 34.2497 21.6147C32.5965 24.2543 30.9431 26.8941 29.2909 29.5349L29.7148 29.8001L29.2909 29.5349C28.9839 30.0255 28.6931 30.5111 28.4053 30.9916C27.9288 31.7873 27.4604 32.5694 26.9404 33.3383L26.9401 33.3387L26.9023 33.3947C26.0379 34.6759 25.255 35.8364 23.9516 36.4924L23.9515 36.4925C22.3811 37.2838 20.8178 37.3233 19.2151 36.6262C17.714 35.9707 16.8239 34.704 15.9066 33.2264L15.9065 33.2263C13.3832 29.1646 10.8383 25.1155 8.2947 21.0685C7.38759 19.6252 6.48064 18.1822 5.5749 16.739C4.86747 15.6092 4.16059 14.4826 3.45404 13.3565C2.66924 12.1057 1.88485 10.8555 1.10058 9.60246C2.0614 9.59973 3.02237 9.60068 3.98414 9.60163C4.47324 9.60212 4.96255 9.6026 5.45215 9.6026C5.84817 9.6026 6.24522 9.60366 6.64297 9.60472C7.64106 9.60739 8.64356 9.61006 9.64507 9.59603Z" fill="url(#paint0_linear)" stroke="#333333"/>
<path d="M21.5627 1.32926C23.4099 3.90834 25.2548 6.48729 27.0975 9.07051C27.1669 9.16856 27.2137 9.25578 27.2749 9.37019C27.2807 9.38101 27.2867 9.39206 27.2928 9.4034C27.2834 9.42193 27.2744 9.43983 27.2657 9.45718C27.1932 9.60151 27.1399 9.70756 27.0587 9.81972L27.0577 9.82105C26.2662 10.9213 25.4731 12.017 24.6795 13.1135C24.0838 13.9364 23.4879 14.7597 22.8921 15.5856C22.4044 16.2595 21.9234 16.9371 21.4436 17.6153C19.5872 15.036 17.7286 12.4545 15.87 9.87506L15.8686 9.87316C15.8631 9.86558 15.8572 9.85753 15.8511 9.84908C15.7963 9.77327 15.718 9.66503 15.6215 9.56607L15.2636 9.91527L15.6219 9.56653C15.5123 9.45389 15.5129 9.39806 15.513 9.38468L15.513 9.38461C15.5133 9.35465 15.528 9.27387 15.6418 9.12216L15.6427 9.12089C16.2822 8.26264 16.9121 7.39745 17.5406 6.5343C17.7415 6.25829 17.9423 5.98248 18.1433 5.70718L18.1436 5.70672C18.4972 5.221 18.8505 4.73542 19.2038 4.24992C19.9099 3.27948 20.6157 2.30935 21.3237 1.339L21.3241 1.33844C21.3711 1.27382 21.4118 1.22023 21.4478 1.17593C21.4813 1.21807 21.5192 1.26864 21.5626 1.32918L21.5627 1.32926ZM21.5711 1.045C21.571 1.04506 21.5701 1.04574 21.5684 1.04686C21.5702 1.0455 21.5711 1.04494 21.5711 1.045ZM21.3258 1.04385C21.3258 1.0438 21.3265 1.04431 21.3281 1.04552C21.3266 1.04451 21.3258 1.0439 21.3258 1.04385ZM21.8381 17.9235C21.5196 18.3755 21.3756 18.3777 21.0572 17.9344L21.8381 17.9235Z" stroke="#D30303"/>
<path d="M56.3669 23.9257H55.3308V11.8014H59.8751C61.0021 11.8014 61.8928 12.1468 62.5472 12.8375C63.2016 13.5161 63.5288 14.3523 63.5288 15.346C63.5288 16.3397 63.1955 17.1819 62.529 17.8726C61.8746 18.5513 60.99 18.8906 59.8751 18.8906H56.3669V23.9257ZM59.7661 17.9453C60.5659 17.9453 61.2081 17.703 61.6929 17.2182C62.1897 16.7335 62.4381 16.1094 62.4381 15.346C62.4381 14.5825 62.1897 13.9584 61.6929 13.4737C61.2081 12.989 60.5659 12.7466 59.7661 12.7466H56.3669V17.9453H59.7661Z" fill="#333333"/>
<path d="M71.1503 24.1438C69.3932 24.1438 67.9693 23.55 66.8787 22.3624C65.8001 21.1749 65.2609 19.6783 65.2609 17.8726C65.2609 16.067 65.8001 14.5704 66.8787 13.3828C67.9693 12.1952 69.3932 11.6014 71.1503 11.6014C72.8954 11.6014 74.3132 12.1952 75.4038 13.3828C76.4945 14.5704 77.0398 16.067 77.0398 17.8726C77.0398 19.6783 76.4945 21.1749 75.4038 22.3624C74.3132 23.55 72.8954 24.1438 71.1503 24.1438ZM71.1503 23.1986C72.5803 23.1986 73.7376 22.7017 74.6222 21.7081C75.5069 20.7022 75.9492 19.4238 75.9492 17.8726C75.9492 16.3094 75.5069 15.0309 74.6222 14.0372C73.7497 13.0435 72.5924 12.5467 71.1503 12.5467C69.6962 12.5467 68.5328 13.0435 67.6603 14.0372C66.7878 15.0309 66.3515 16.3094 66.3515 17.8726C66.3515 19.4238 66.7878 20.7022 67.6603 21.7081C68.5328 22.7017 69.6962 23.1986 71.1503 23.1986Z" fill="#333333"/>
<path d="M84.6865 23.9257H79.5968V11.8014H84.5774C85.5954 11.8014 86.4073 12.0801 87.0132 12.6376C87.6191 13.195 87.9221 13.9463 87.9221 14.8915C87.9221 15.6186 87.71 16.2367 87.2859 16.7456C86.8738 17.2425 86.377 17.5515 85.7953 17.6727C86.4376 17.7696 86.989 18.115 87.4495 18.7088C87.9221 19.2905 88.1584 19.9388 88.1584 20.6538C88.1584 21.6596 87.8494 22.4594 87.2313 23.0532C86.6133 23.6349 85.765 23.9257 84.6865 23.9257ZM84.4502 17.2364C85.2015 17.2364 85.7832 17.0304 86.1952 16.6184C86.6194 16.1943 86.8314 15.655 86.8314 15.0006C86.8314 14.3583 86.6194 13.8251 86.1952 13.401C85.7832 12.9647 85.2015 12.7466 84.4502 12.7466H80.633V17.2364H84.4502ZM84.5229 22.9805C85.3227 22.9805 85.9468 22.7684 86.3952 22.3443C86.8436 21.908 87.0677 21.3203 87.0677 20.5811C87.0677 19.9146 86.8436 19.3511 86.3952 18.8906C85.9468 18.418 85.3227 18.1816 84.5229 18.1816H80.633V22.9805H84.5229Z" fill="#333333"/>
<path d="M91.7804 23.9257H90.7624V11.8014H91.7985V22.0716L99.3967 11.8014H100.451V23.9257H99.4148V13.5101L91.7804 23.9257Z" fill="#333333"/>
<path d="M107.617 23.9257H106.563V12.7466H102.6V11.8014H111.579V12.7466H107.617V23.9257Z" fill="#333333"/>
<path d="M122.452 23.9257H121.252L120.052 20.9446H113.636L112.436 23.9257H111.236L116.199 11.8014H117.489L122.452 23.9257ZM119.707 19.9994L116.835 12.9102L113.981 19.9994H119.707Z" fill="#333333"/>
<path d="M123.369 24.1438V23.1986C123.926 23.1986 124.381 23.0653 124.732 22.7987C125.084 22.52 125.405 21.9807 125.696 21.1809C125.986 20.369 126.229 19.2359 126.423 17.7817L127.204 11.8014H134.021V23.9257H132.967V12.7466H128.131L127.477 17.8726C127.344 18.939 127.174 19.854 126.968 20.6174C126.762 21.3687 126.544 21.9747 126.314 22.4351C126.083 22.8835 125.805 23.241 125.477 23.5076C125.15 23.7621 124.823 23.9318 124.496 24.0166C124.181 24.1014 123.805 24.1438 123.369 24.1438Z" fill="#333333"/>
<path d="M55.9041 30.7422H55.5976V28.5527H54.8186V28.2794H56.6869V28.5527H55.9041V30.7422Z" fill="#333333"/>
<path d="M58.3003 30.7865C57.9384 30.7865 57.6443 30.6659 57.4178 30.4247C57.1914 30.1834 57.0781 29.8794 57.0781 29.5127C57.0781 29.1459 57.1914 28.8419 57.4178 28.6007C57.6443 28.3594 57.9384 28.2388 58.3003 28.2388C58.6597 28.2388 58.9526 28.3594 59.179 28.6007C59.408 28.8419 59.5224 29.1459 59.5224 29.5127C59.5224 29.8794 59.408 30.1834 59.179 30.4247C58.9526 30.6659 58.6597 30.7865 58.3003 30.7865ZM58.3003 30.5133C58.571 30.5133 58.7889 30.4197 58.9538 30.2327C59.1212 30.0431 59.2049 29.8031 59.2049 29.5127C59.2049 29.2197 59.1212 28.9798 58.9538 28.7927C58.7889 28.6056 58.571 28.5121 58.3003 28.5121C58.027 28.5121 57.808 28.6056 57.643 28.7927C57.4781 28.9798 57.3957 29.2197 57.3957 29.5127C57.3957 29.8031 57.4781 30.0431 57.643 30.2327C57.808 30.4197 58.027 30.5133 58.3003 30.5133Z" fill="#333333"/>
<path d="M60.4922 30.7422H60.1857V28.2794H61.1753C61.414 28.2794 61.6023 28.3508 61.7402 28.4936C61.878 28.6364 61.9469 28.8124 61.9469 29.0216C61.9469 29.2308 61.8768 29.4068 61.7365 29.5496C61.5986 29.6924 61.4116 29.7637 61.1753 29.7637H60.4922V30.7422ZM61.1383 29.4905C61.2836 29.4905 61.4017 29.4474 61.4928 29.3613C61.5839 29.2727 61.6294 29.1594 61.6294 29.0216C61.6294 28.8838 61.5839 28.7718 61.4928 28.6856C61.4017 28.597 61.2836 28.5527 61.1383 28.5527H60.4922V29.4905H61.1383Z" fill="#333333"/>
<path d="M62.8438 30.7422H62.5374V28.2794H64.1509V28.5527H62.8438V30.7422Z" fill="#333333"/>
<path d="M65.7735 30.7865C65.4117 30.7865 65.1175 30.6659 64.8911 30.4247C64.6646 30.1834 64.5514 29.8794 64.5514 29.5127C64.5514 29.1459 64.6646 28.8419 64.8911 28.6007C65.1175 28.3594 65.4117 28.2388 65.7735 28.2388C66.1329 28.2388 66.4258 28.3594 66.6523 28.6007C66.8812 28.8419 66.9957 29.1459 66.9957 29.5127C66.9957 29.8794 66.8812 30.1834 66.6523 30.4247C66.4258 30.6659 66.1329 30.7865 65.7735 30.7865ZM65.7735 30.5133C66.0443 30.5133 66.2621 30.4197 66.4271 30.2327C66.5944 30.0431 66.6781 29.8031 66.6781 29.5127C66.6781 29.2197 66.5944 28.9798 66.4271 28.7927C66.2621 28.6056 66.0443 28.5121 65.7735 28.5121C65.5003 28.5121 65.2812 28.6056 65.1163 28.7927C64.9514 28.9798 64.8689 29.2197 64.8689 29.5127C64.8689 29.8031 64.9514 30.0431 65.1163 30.2327C65.2812 30.4197 65.5003 30.5133 65.7735 30.5133Z" fill="#333333"/>
<path d="M68.7814 30.7422H67.659V28.2794H68.7556C68.9673 28.2794 69.1347 28.3373 69.2577 28.453C69.3833 28.5687 69.446 28.7201 69.446 28.9071C69.446 29.0548 69.4042 29.1804 69.3205 29.2837C69.2368 29.3847 69.1347 29.4474 69.014 29.4721C69.1445 29.4917 69.2565 29.5607 69.35 29.6788C69.446 29.797 69.494 29.9299 69.494 30.0776C69.494 30.277 69.43 30.4382 69.302 30.5613C69.1765 30.6819 69.003 30.7422 68.7814 30.7422ZM68.7039 29.3465C68.8393 29.3465 68.9439 29.3096 69.0177 29.2357C69.0916 29.1619 69.1285 29.0671 69.1285 28.9514C69.1285 28.8358 69.0903 28.741 69.014 28.6671C68.9402 28.5908 68.8368 28.5527 68.7039 28.5527H67.9654V29.3465H68.7039ZM68.7187 30.469C68.8614 30.469 68.9734 30.4308 69.0547 30.3545C69.1359 30.2782 69.1765 30.1748 69.1765 30.0444C69.1765 29.9237 69.1359 29.8228 69.0547 29.7416C68.9759 29.6604 68.8639 29.6197 68.7187 29.6197H67.9654V30.469H68.7187Z" fill="#333333"/>
<path d="M71.2881 30.7865C70.9263 30.7865 70.6321 30.6659 70.4057 30.4247C70.1792 30.1834 70.066 29.8794 70.066 29.5127C70.066 29.1459 70.1792 28.8419 70.4057 28.6007C70.6321 28.3594 70.9263 28.2388 71.2881 28.2388C71.6475 28.2388 71.9404 28.3594 72.1669 28.6007C72.3958 28.8419 72.5103 29.1459 72.5103 29.5127C72.5103 29.8794 72.3958 30.1834 72.1669 30.4247C71.9404 30.6659 71.6475 30.7865 71.2881 30.7865ZM71.2881 30.5133C71.5589 30.5133 71.7767 30.4197 71.9417 30.2327C72.1091 30.0431 72.1927 29.8031 72.1927 29.5127C72.1927 29.2197 72.1091 28.9798 71.9417 28.7927C71.7767 28.6056 71.5589 28.5121 71.2881 28.5121C71.0149 28.5121 70.7958 28.6056 70.6309 28.7927C70.466 28.9798 70.3835 29.2197 70.3835 29.5127C70.3835 29.8031 70.466 30.0431 70.6309 30.2327C70.7958 30.4197 71.0149 30.5133 71.2881 30.5133Z" fill="#333333"/>
<path d="M73.8825 29.9705H72.9964V29.7268H73.8825V29.9705Z" fill="#333333"/>
<path d="M74.7605 30.7422H74.4652V28.2794H74.7716V30.2031L76.1895 28.2794H76.5033V30.7422H76.1968V28.7779L74.7605 30.7422Z" fill="#333333"/>
<path d="M79.3168 30.7422H79.0104V29.6124H77.5704V30.7422H77.2639V28.2794H77.5704V29.3391H79.0104V28.2794H79.3168V30.7422Z" fill="#333333"/>
<path d="M81.1996 30.7422H80.0771V28.2794H81.1737C81.3854 28.2794 81.5528 28.3373 81.6759 28.453C81.8014 28.5687 81.8642 28.7201 81.8642 28.9071C81.8642 29.0548 81.8223 29.1804 81.7387 29.2837C81.655 29.3847 81.5528 29.4474 81.4322 29.4721C81.5627 29.4917 81.6747 29.5607 81.7682 29.6788C81.8642 29.797 81.9122 29.9299 81.9122 30.0776C81.9122 30.277 81.8482 30.4382 81.7202 30.5613C81.5947 30.6819 81.4211 30.7422 81.1996 30.7422ZM81.122 29.3465C81.2574 29.3465 81.362 29.3096 81.4359 29.2357C81.5097 29.1619 81.5467 29.0671 81.5467 28.9514C81.5467 28.8358 81.5085 28.741 81.4322 28.6671C81.3584 28.5908 81.255 28.5527 81.122 28.5527H80.3836V29.3465H81.122ZM81.1368 30.469C81.2796 30.469 81.3916 30.4308 81.4728 30.3545C81.554 30.2782 81.5947 30.1748 81.5947 30.0444C81.5947 29.9237 81.554 29.8228 81.4728 29.7416C81.394 29.6604 81.282 29.6197 81.1368 29.6197H80.3836V30.469H81.1368Z" fill="#333333"/>
<path d="M84.1974 30.7422H82.5838V28.2794H84.1974V28.5527H82.8903V29.3465H84.1715V29.6197H82.8903V30.469H84.1974V30.7422Z" fill="#333333"/>
<path d="M86.0374 30.7865C85.678 30.7865 85.3764 30.6684 85.1327 30.432C84.8915 30.1933 84.7709 29.8868 84.7709 29.5127C84.7709 29.1385 84.8915 28.8333 85.1327 28.597C85.3764 28.3582 85.678 28.2388 86.0374 28.2388C86.4312 28.2388 86.7426 28.4013 86.9715 28.7262L86.713 28.8702C86.6417 28.7644 86.5457 28.6782 86.425 28.6118C86.3044 28.5453 86.1752 28.5121 86.0374 28.5121C85.7666 28.5121 85.5401 28.6068 85.358 28.7964C85.1783 28.9834 85.0884 29.2222 85.0884 29.5127C85.0884 29.8031 85.1783 30.0431 85.358 30.2327C85.5401 30.4197 85.7666 30.5133 86.0374 30.5133C86.1752 30.5133 86.3044 30.4813 86.425 30.4173C86.5457 30.3508 86.6417 30.2634 86.713 30.1551L86.9752 30.2991C86.7364 30.624 86.4238 30.7865 86.0374 30.7865Z" fill="#333333"/>
<path d="M88.4661 30.7422H88.1596V28.5527H87.3805V28.2794H89.2488V28.5527H88.4661V30.7422Z" fill="#333333"/>
<path d="M90.1361 30.7422H89.8407V28.2794H90.1472V30.2031L91.565 28.2794H91.8789V30.7422H91.5724V28.7779L90.1361 30.7422Z" fill="#333333"/>
<path d="M94.6112 31.1963V30.7422H92.6395V28.2794H92.946V30.469H94.386V28.2794H94.6924V30.469H94.9177V31.1963H94.6112Z" fill="#333333"/>
<path d="M95.7878 30.7422H95.4924V28.2794H95.7988V30.2031L97.2167 28.2794H97.5305V30.7422H97.2241V28.7779L95.7878 30.7422Z" fill="#333333"/>
<path d="M99.4136 30.7865C99.0518 30.7865 98.7576 30.6659 98.5311 30.4247C98.3047 30.1834 98.1915 29.8794 98.1915 29.5127C98.1915 29.1459 98.3047 28.8419 98.5311 28.6007C98.7576 28.3594 99.0518 28.2388 99.4136 28.2388C99.773 28.2388 100.066 28.3594 100.292 28.6007C100.521 28.8419 100.636 29.1459 100.636 29.5127C100.636 29.8794 100.521 30.1834 100.292 30.4247C100.066 30.6659 99.773 30.7865 99.4136 30.7865ZM99.4136 30.5133C99.6844 30.5133 99.9022 30.4197 100.067 30.2327C100.235 30.0431 100.318 29.8031 100.318 29.5127C100.318 29.2197 100.235 28.9798 100.067 28.7927C99.9022 28.6056 99.6844 28.5121 99.4136 28.5121C99.1404 28.5121 98.9213 28.6056 98.7564 28.7927C98.5915 28.9798 98.509 29.2197 98.509 29.5127C98.509 29.8031 98.5915 30.0431 98.7564 30.2327C98.9213 30.4197 99.1404 30.5133 99.4136 30.5133Z" fill="#333333"/>
<path d="M103.352 30.7422H103.045V29.6124H101.606V30.7422H101.299V28.2794H101.606V29.3391H103.045V28.2794H103.352V30.7422Z" fill="#333333"/>
<path d="M106.165 30.7422H105.859V29.6124H104.419V30.7422H104.112V28.2794H104.419V29.3391H105.859V28.2794H106.165V30.7422Z" fill="#333333"/>
<path d="M109.034 30.7422H108.683L108.465 30.1957H107.239L107.021 30.7422H106.671L107.66 28.2794H108.041L109.034 30.7422ZM108.373 29.9225L107.852 28.597L107.328 29.9225H108.373Z" fill="#333333"/>
<path d="M109.784 30.7422H109.426L110.09 29.7379C109.911 29.7231 109.758 29.653 109.633 29.5274C109.51 29.4019 109.448 29.2333 109.448 29.0216C109.448 28.7976 109.519 28.6179 109.662 28.4825C109.807 28.3471 109.994 28.2794 110.223 28.2794H111.213V30.7422H110.906V29.7637H110.412L109.784 30.7422ZM110.257 29.4942H110.906V28.5527H110.257C110.111 28.5527 109.993 28.597 109.902 28.6856C109.811 28.7718 109.766 28.8838 109.766 29.0216C109.766 29.1594 109.811 29.2727 109.902 29.3613C109.996 29.4499 110.114 29.4942 110.257 29.4942Z" fill="#333333"/>
<path d="M114.976 30.7422H114.596L113.662 29.6345L113.414 29.9151V30.7422H113.108V28.2794H113.414V29.5533L114.504 28.2794H114.888L113.861 29.4499L114.976 30.7422Z" fill="#333333"/>
<path d="M116.434 30.7865C116.072 30.7865 115.778 30.6659 115.552 30.4247C115.325 30.1834 115.212 29.8794 115.212 29.5127C115.212 29.1459 115.325 28.8419 115.552 28.6007C115.778 28.3594 116.072 28.2388 116.434 28.2388C116.794 28.2388 117.086 28.3594 117.313 28.6007C117.542 28.8419 117.656 29.1459 117.656 29.5127C117.656 29.8794 117.542 30.1834 117.313 30.4247C117.086 30.6659 116.794 30.7865 116.434 30.7865ZM116.434 30.5133C116.705 30.5133 116.923 30.4197 117.088 30.2327C117.255 30.0431 117.339 29.8031 117.339 29.5127C117.339 29.2197 117.255 28.9798 117.088 28.7927C116.923 28.6056 116.705 28.5121 116.434 28.5121C116.161 28.5121 115.942 28.6056 115.777 28.7927C115.612 28.9798 115.53 29.2197 115.53 29.5127C115.53 29.8031 115.612 30.0431 115.777 30.2327C115.942 30.4197 116.161 30.5133 116.434 30.5133Z" fill="#333333"/>
<path d="M120.731 30.7422H120.424V28.7151L119.586 30.7422H119.46L118.626 28.7151V30.7422H118.32V28.2794H118.759L119.523 30.133L120.291 28.2794H120.731V30.7422Z" fill="#333333"/>
<path d="M123.543 30.7422H123.236V28.5527H121.796V30.7422H121.49V28.2794H123.543V30.7422Z" fill="#333333"/>
<path d="M126.411 30.7422H126.06L125.843 30.1957H124.617L124.399 30.7422H124.048L125.038 28.2794H125.418L126.411 30.7422ZM125.75 29.9225L125.23 28.597L124.705 29.9225H125.75Z" fill="#333333"/>
<path d="M128.971 30.7422H128.664V29.6124H127.224V30.7422H126.918V28.2794H127.224V29.3391H128.664V28.2794H128.971V30.7422Z" fill="#333333"/>
<path d="M130.026 30.7422H129.731V28.2794H130.037V30.2031L131.455 28.2794H131.769V30.7422H131.463V28.7779L130.026 30.7422Z" fill="#333333"/>
<path d="M132.773 30.7422H132.415L133.08 29.7379C132.9 29.7231 132.748 29.653 132.622 29.5274C132.499 29.4019 132.437 29.2333 132.437 29.0216C132.437 28.7976 132.509 28.6179 132.652 28.4825C132.797 28.3471 132.984 28.2794 133.213 28.2794H134.202V30.7422H133.896V29.7637H133.401L132.773 30.7422ZM133.246 29.4942H133.896V28.5527H133.246C133.101 28.5527 132.983 28.597 132.892 28.6856C132.801 28.7718 132.755 28.8838 132.755 29.0216C132.755 29.1594 132.801 29.2727 132.892 29.3613C132.985 29.4499 133.103 29.4942 133.246 29.4942Z" fill="#333333"/>
<defs>
<linearGradient id="paint0_linear" x1="39.0571" y1="73.7786" x2="21.4146" y2="37.6194" gradientUnits="userSpaceOnUse">
<stop stop-color="#C4C4C4"/>
<stop offset="1" stop-color="#C4C4C4" stop-opacity="0"/>
</linearGradient>
</defs>
</svg>
