<svg width="102" height="25" viewBox="0 0 102 25" fill="none" xmlns="http://www.w3.org/2000/svg">
<g clip-path="url(#clip0)">
<path d="M34.5722 21.1972V1.1929H37.875V9.86444H47.5888V1.1929H50.8916V21.1972H47.5888V13.0124H37.875V21.1972H34.5722Z" fill="#1D3665"/>
<path d="M57.1324 21.1994H53.606L62.227 1.19437H65.7548L74.3752 21.198H70.8494L68.8898 16.6457H59.0921L57.1331 21.1987L57.1324 21.1994ZM63.9906 5.28573L60.4359 13.5257H67.5466L63.9906 5.28573Z" fill="#1D3665"/>
<path d="M91.7577 1.1929V16.1317L80.3932 1.1929H77.0904V21.1972H80.3932V6.60126L91.4783 21.1958H95.0612V1.1929H91.7577Z" fill="#1D3665"/>
<path d="M-4.04881 4.22706V1.19223H6.02134V17.5325C6.06577 18.9297 5.71604 20.3106 5.0133 21.5129C4.43203 22.4839 3.60155 23.2763 2.6107 23.8052C1.61986 24.3341 0.505951 24.5797 -0.611818 24.5156C-1.81098 24.5362 -2.99984 24.2879 -4.09352 23.7884C-5.18721 23.2889 -6.15875 22.5505 -6.93878 21.626L-4.97911 19.1079C-3.72954 20.539 -2.38731 21.2545 -0.952422 21.2545C-0.0341692 21.253 0.855328 20.9293 1.56529 20.3383C1.94842 20.0237 2.25227 19.621 2.45173 19.1636C2.65118 18.7062 2.74051 18.2072 2.71233 17.7078V4.22706H-4.04881Z" fill="#1D3665"/>
<path d="M20.3996 21.8718C18.9822 21.8864 17.5751 21.6272 16.2532 21.1079C14.9724 20.5839 13.8084 19.8043 12.83 18.8153C11.8415 17.8417 11.0601 16.6729 10.5338 15.3811C10.013 14.0482 9.75314 12.625 9.76866 11.1912C9.75319 9.75746 10.0131 8.33435 10.5338 7.00142C11.0608 5.7118 11.8422 4.54523 12.83 3.57345C13.8082 2.58407 14.9723 1.80422 16.2532 1.28022C17.5751 0.76088 18.9822 0.501619 20.3996 0.516277C21.8168 0.501588 23.2237 0.760852 24.5453 1.28022C25.826 1.80422 26.9899 2.58407 27.9679 3.57345C28.9563 4.5468 29.7378 5.71535 30.264 7.00701C30.7848 8.33992 31.0447 9.76304 31.0292 11.1968C31.0446 12.6306 30.7847 14.0537 30.264 15.3867C29.7377 16.6787 28.9563 17.8477 27.9679 18.8216C26.9899 19.8107 25.826 20.5903 24.5453 21.1141C23.2233 21.6313 21.8164 21.8885 20.3996 21.8718ZM20.3996 3.70752C19.4509 3.69135 18.5094 3.87754 17.636 4.25405C16.7627 4.63056 15.977 5.189 15.3298 5.89322C14.6569 6.59436 14.1276 7.42387 13.7724 8.33383C13.4173 9.24379 13.2434 10.2162 13.2607 11.1947C13.243 12.173 13.4163 13.1452 13.7706 14.0553C14.1249 14.9653 14.6531 15.7951 15.325 16.497C15.9719 17.201 16.7572 17.7592 17.6302 18.1356C18.5032 18.512 19.4444 18.6981 20.3927 18.6819C21.3415 18.6977 22.2829 18.5115 23.1563 18.1351C24.0297 17.7587 24.8156 17.2007 25.4632 16.497C26.1354 15.7954 26.6639 14.9655 27.0182 14.0555C27.3725 13.1454 27.5456 12.1731 27.5275 11.1947C27.5455 10.2165 27.3724 9.2443 27.0181 8.33435C26.6638 7.4244 26.1353 6.59471 25.4632 5.89322C24.8171 5.18941 24.0324 4.63119 23.1601 4.25467C22.2879 3.87816 21.3474 3.69175 20.3996 3.70752Z" fill="#00FF73"/>
</g>
<defs>
<clipPath id="clip0">
<rect width="102" height="24" fill="white" transform="translate(0 0.516235)"/>
</clipPath>
</defs>
</svg>
