<svg width="22" height="22" viewBox="0 0 22 22" fill="none" xmlns="http://www.w3.org/2000/svg">
<g clip-path="url(#clip0)">
<path d="M21.4985 14.7456C21.4411 14.6508 21.0859 13.8899 19.3764 12.3257C17.5869 10.6879 17.8273 10.9539 19.9827 8.12189C21.2955 6.39716 21.8204 5.34389 21.6561 4.89362C21.4999 4.46441 20.5343 4.57764 20.5343 4.57764L17.3238 4.59607C17.3238 4.59607 17.0861 4.56447 16.9085 4.66848C16.7362 4.77118 16.6253 5.00816 16.6253 5.00816C16.6253 5.00816 16.1165 6.34318 15.4381 7.47808C14.0078 9.87295 13.4349 9.99934 13.2011 9.85057C12.6576 9.5043 12.7938 8.45762 12.7938 7.71506C12.7938 5.39392 13.1504 4.42623 12.098 4.17608C11.7481 4.09314 11.4917 4.03784 10.5983 4.02862C9.45243 4.01677 8.48153 4.03257 7.93264 4.29721C7.56672 4.47363 7.28493 4.86729 7.45721 4.88967C7.66955 4.91732 8.15032 5.01738 8.4054 5.35969C8.73527 5.80075 8.72325 6.79345 8.72325 6.79345C8.72325 6.79345 8.91289 9.52537 8.2812 9.86505C7.84717 10.0981 7.25288 9.6228 5.97749 7.44911C5.32443 6.3366 4.8303 5.10559 4.8303 5.10559C4.8303 5.10559 4.73548 4.87651 4.56587 4.75406C4.36021 4.60529 4.07174 4.55789 4.07174 4.55789L1.01882 4.57632C1.01882 4.57632 0.560746 4.58949 0.392475 4.78566C0.2429 4.96077 0.380455 5.32151 0.380455 5.32151C0.380455 5.32151 2.77098 10.8341 5.47668 13.6134C7.95935 16.161 10.7772 15.9938 10.7772 15.9938H12.054C12.054 15.9938 12.4399 15.9516 12.6362 15.7423C12.8179 15.5501 12.8112 15.1893 12.8112 15.1893C12.8112 15.1893 12.7858 13.5001 13.5818 13.2513C14.3657 13.0064 15.3726 14.8839 16.4397 15.6067C17.2463 16.1531 17.8593 16.0333 17.8593 16.0333L20.7133 15.9938C20.7133 15.9938 22.2063 15.9029 21.4985 14.7456Z" fill="#00FF73"/>
</g>
<defs>
<clipPath id="clip0">
<rect width="21.3662" height="21.3662" fill="white" transform="translate(0.322754 0.0197754)"/>
</clipPath>
</defs>
</svg>
