<svg width="21" height="20" viewBox="0 0 21 20" fill="none" xmlns="http://www.w3.org/2000/svg">
<g clip-path="url(#clip0)">
<path d="M20.2624 13.7586C20.2092 13.6708 19.8802 12.966 18.297 11.5173C16.6395 10.0004 16.8621 10.2467 18.8585 7.62372C20.0744 6.02629 20.5605 5.05075 20.4084 4.63371C20.2637 4.23619 19.3694 4.34105 19.3694 4.34105L16.3958 4.35813C16.3958 4.35813 16.1756 4.32886 16.0111 4.42519C15.8516 4.52031 15.7489 4.7398 15.7489 4.7398C15.7489 4.7398 15.2776 5.97629 14.6493 7.02742C13.3245 9.24554 12.7939 9.3626 12.5774 9.22481C12.074 8.9041 12.2002 7.93467 12.2002 7.24692C12.2002 5.09709 12.5304 4.20082 11.5557 3.96913C11.2317 3.89231 10.9942 3.8411 10.1667 3.83256C9.1054 3.82158 8.20616 3.83622 7.69779 4.08132C7.35887 4.24472 7.09788 4.60933 7.25744 4.63006C7.45411 4.65566 7.89941 4.74834 8.13566 5.06539C8.44118 5.47389 8.43005 6.39333 8.43005 6.39333C8.43005 6.39333 8.60569 8.92361 8.02062 9.23822C7.61863 9.45406 7.06819 9.01385 5.88694 7.0006C5.28208 5.97019 4.82442 4.83004 4.82442 4.83004C4.82442 4.83004 4.7366 4.61786 4.57951 4.50446C4.38902 4.36666 4.12185 4.32276 4.12185 4.32276L1.29425 4.33984C1.29425 4.33984 0.869984 4.35203 0.714132 4.53372C0.575597 4.6959 0.703 5.03002 0.703 5.03002C0.703 5.03002 2.91709 10.1357 5.42309 12.7099C7.72253 15.0695 10.3324 14.9146 10.3324 14.9146H11.5149C11.5149 14.9146 11.8724 14.8756 12.0542 14.6817C12.2224 14.5037 12.2163 14.1695 12.2163 14.1695C12.2163 14.1695 12.1928 12.605 12.93 12.3746C13.656 12.1477 14.5887 13.8866 15.577 14.5561C16.3241 15.0621 16.8918 14.9512 16.8918 14.9512L19.5351 14.9146C19.5351 14.9146 20.918 14.8305 20.2624 13.7586Z" fill="#1D3665"/>
</g>
<defs>
<clipPath id="clip0">
<rect width="19.7893" height="19.7893" fill="white" transform="translate(0.649567 0.119629)"/>
</clipPath>
</defs>
</svg>
