<svg width="21" height="20" viewBox="0 0 21 20" fill="none" xmlns="http://www.w3.org/2000/svg">
<g clip-path="url(#clip0)">
<path d="M19.7824 5.14136C19.2456 4.18653 18.6631 4.0109 17.477 3.94411C16.2921 3.86372 13.3125 3.83032 10.7313 3.83032C8.14507 3.83032 5.16431 3.86372 3.98066 3.94287C2.79702 4.0109 2.21323 4.18529 1.6715 5.14136C1.11864 6.09496 0.834167 7.73747 0.834167 10.6292C0.834167 10.6317 0.834167 10.6329 0.834167 10.6329C0.834167 10.6354 0.834167 10.6366 0.834167 10.6366V10.6391C0.834167 13.5184 1.11864 15.1733 1.6715 16.117C2.21323 17.0718 2.79578 17.245 3.97943 17.3254C5.16431 17.3946 8.14507 17.4355 10.7313 17.4355C13.3125 17.4355 16.2921 17.3946 17.4782 17.3266C18.6643 17.2462 19.2469 17.0731 19.7836 16.1182C20.3415 15.1745 20.6234 13.5196 20.6234 10.6403C20.6234 10.6403 20.6234 10.6366 20.6234 10.6341C20.6234 10.6341 20.6234 10.6317 20.6234 10.6304C20.6234 7.73747 20.3415 6.09496 19.7824 5.14136ZM8.25515 14.3434V6.9224L14.4393 10.6329L8.25515 14.3434Z" fill="#1D3665"/>
</g>
<defs>
<clipPath id="clip0">
<rect width="19.7893" height="19.7893" fill="white" transform="translate(0.834167 0.119873)"/>
</clipPath>
</defs>
</svg>
