<svg width="102" height="99" viewBox="0 0 102 99" fill="none" xmlns="http://www.w3.org/2000/svg">
<path d="M51.9847 80.5621L51.9814 80.5627C50.9424 80.7447 49.5368 80.4751 47.7941 79.6704C46.0715 78.875 44.128 77.6071 42.0646 75.9549C37.9401 72.6525 33.4408 67.8993 29.4083 62.6061C25.3758 57.3128 21.8425 51.5219 19.6237 46.1597C17.3848 40.7487 16.5688 35.976 17.676 32.6019L17.6774 32.5975C18.7821 29.1764 21.5745 26.1538 25.6105 23.7402C29.6388 21.3313 34.828 19.579 40.5592 18.6715C52.0362 16.8543 65.4792 18.455 75.8002 24.678L75.8016 24.6788C81.1705 27.9039 83.4861 32.6981 83.6911 38.2102C83.8982 43.7781 81.9437 50.0948 78.6792 56.1739C75.4211 62.241 70.9019 67.9888 66.0914 72.403C61.2585 76.8377 56.2349 79.8324 51.9847 80.5621Z" stroke="#00FF73" stroke-width="2"/>
<g filter="url(#filter0_d)">
<path d="M49.7214 16.8186C40.0809 15.9101 16.0891 50.1438 21.5034 63.0465C26.8483 75.9546 57.3458 79.1809 75.3386 66.3826C94.7242 52.6419 66.1128 18.3072 49.7214 16.8186Z" fill="url(#paint0_linear)"/>
</g>
<g filter="url(#filter1_d)">
<path d="M40.4138 34.8547V56.1047C40.4138 56.796 40.9726 57.3547 41.6638 57.3547H62.9138V54.8547H42.9138V34.8547H40.4138Z" fill="#00FF73"/>
<path d="M55.1266 48.7277C55.6013 49.1924 56.3686 49.1924 56.8433 48.7277L62.9138 42.7853L61.1971 41.1047L55.985 46.2069L53.201 43.4817C52.7263 43.017 51.959 43.017 51.4843 43.4817L45.4138 49.4242L47.1306 51.1047L52.3427 46.0025L55.1266 48.7277Z" fill="#00FF73"/>
</g>
<defs>
<filter id="filter0_d" x="0.717529" y="0.800827" width="101.118" height="97.7091" filterUnits="userSpaceOnUse" color-interpolation-filters="sRGB">
<feFlood flood-opacity="0" result="BackgroundImageFix"/>
<feColorMatrix in="SourceAlpha" type="matrix" values="0 0 0 0 0 0 0 0 0 0 0 0 0 0 0 0 0 0 127 0"/>
<feOffset dy="4"/>
<feGaussianBlur stdDeviation="10"/>
<feColorMatrix type="matrix" values="0 0 0 0 0.117647 0 0 0 0 0.215686 0 0 0 0 0.396078 0 0 0 0.2 0"/>
<feBlend mode="normal" in2="BackgroundImageFix" result="effect1_dropShadow"/>
<feBlend mode="normal" in="SourceGraphic" in2="effect1_dropShadow" result="shape"/>
</filter>
<filter id="filter1_d" x="16.6638" y="15.1047" width="70" height="70" filterUnits="userSpaceOnUse" color-interpolation-filters="sRGB">
<feFlood flood-opacity="0" result="BackgroundImageFix"/>
<feColorMatrix in="SourceAlpha" type="matrix" values="0 0 0 0 0 0 0 0 0 0 0 0 0 0 0 0 0 0 127 0"/>
<feOffset dy="4"/>
<feGaussianBlur stdDeviation="10"/>
<feColorMatrix type="matrix" values="0 0 0 0 0 0 0 0 0 1 0 0 0 0 0.45098 0 0 0 0.2 0"/>
<feBlend mode="normal" in2="BackgroundImageFix" result="effect1_dropShadow"/>
<feBlend mode="normal" in="SourceGraphic" in2="effect1_dropShadow" result="shape"/>
</filter>
<linearGradient id="paint0_linear" x1="7.50037" y1="14.6722" x2="70.2379" y2="68.033" gradientUnits="userSpaceOnUse">
<stop stop-color="#1D3665"/>
<stop offset="1" stop-color="#1D3665"/>
</linearGradient>
</defs>
</svg>
