<svg width="102" height="98" viewBox="0 0 102 98" fill="none" xmlns="http://www.w3.org/2000/svg">
<path d="M51.5598 79.2535L51.5564 79.254C50.5869 79.4239 49.2662 79.1732 47.6186 78.4124C45.991 77.6609 44.1526 76.4619 42.1988 74.8975C38.2937 71.7707 34.0321 67.2688 30.212 62.2544C26.3919 57.24 23.0456 51.7552 20.9448 46.6781C18.8238 41.5521 18.0568 37.0436 19.1001 33.8641L19.1015 33.8597C20.1434 30.6333 22.7789 27.7772 26.5977 25.4935C30.4088 23.2144 35.3205 21.5554 40.7476 20.6961C51.6163 18.9752 64.3447 20.4918 74.1141 26.3822L74.1156 26.383C79.1875 29.4296 81.3743 33.9565 81.568 39.1653C81.7638 44.4301 79.9155 50.4076 76.8239 56.1649C73.7386 61.9101 69.4589 67.3533 64.9038 71.5332C60.3262 75.7336 55.5738 78.5644 51.5598 79.2535Z" stroke="#00FF73" stroke-width="2"/>
<g filter="url(#filter0_d)">
<path d="M49.3854 16.0525C39.7449 15.1441 15.7532 49.3778 21.1675 62.2804C26.5123 75.1886 57.0098 78.4149 75.0027 65.6166C94.3883 51.8759 65.7769 17.5412 49.3854 16.0525Z" fill="url(#paint0_linear)"/>
</g>
<g clip-path="url(#clip0)">
<path d="M59.4453 50.6924C57.3602 50.6924 55.6638 52.3888 55.6638 54.474C55.6638 56.5591 57.3602 58.2555 59.4453 58.2555C61.5309 58.2555 63.2269 56.5591 63.2269 54.474C63.2269 52.3888 61.5305 50.6924 59.4453 50.6924ZM59.4453 56.3647C58.4026 56.3647 57.5546 55.5167 57.5546 54.474C57.5546 53.4312 58.4026 52.5832 59.4453 52.5832C60.4881 52.5832 61.3361 53.4312 61.3361 54.474C61.3361 55.5168 60.4881 56.3647 59.4453 56.3647Z" fill="#00FF73"/>
<path d="M46.5252 50.6924C44.44 50.6924 42.7437 52.3888 42.7437 54.474C42.7437 56.5591 44.44 58.2555 46.5252 58.2555C48.6104 58.2555 50.3067 56.5591 50.3067 54.474C50.3067 52.3888 48.6104 50.6924 46.5252 50.6924ZM46.5252 56.3647C45.4824 56.3647 44.6344 55.5167 44.6344 54.474C44.6344 53.4312 45.4824 52.5832 46.5252 52.5832C47.5676 52.5832 48.4159 53.4312 48.4159 54.474C48.4159 55.5168 47.5679 56.3647 46.5252 56.3647Z" fill="#00FF73"/>
<path d="M61.9918 39.8685C61.8311 39.5493 61.5043 39.3479 61.147 39.3479H56.168V41.2387H60.564L63.1382 46.3589L64.8279 45.5092L61.9918 39.8685Z" fill="#00FF73"/>
<path d="M56.6093 53.5601H49.4559V55.4509H56.6093V53.5601Z" fill="#00FF73"/>
<path d="M43.689 53.5601H40.4118C39.8896 53.5601 39.4664 53.9833 39.4664 54.5055C39.4664 55.0277 39.8897 55.4508 40.4118 55.4508H43.6891C44.2113 55.4508 44.6345 55.0276 44.6345 54.5055C44.6345 53.9833 44.2112 53.5601 43.689 53.5601Z" fill="#00FF73"/>
<path d="M66.5893 47.7807L64.7298 45.3857C64.5511 45.155 64.2754 45.0201 63.9832 45.0201H57.1135V38.4025C57.1135 37.8803 56.6902 37.4572 56.1681 37.4572H40.4118C39.8896 37.4572 39.4664 37.8804 39.4664 38.4025C39.4664 38.9246 39.8897 39.3479 40.4118 39.3479H55.2227V45.9655C55.2227 46.4877 55.6459 46.9108 56.1681 46.9108H63.5203L64.8971 48.6844V53.56H62.2815C61.7593 53.56 61.3361 53.9832 61.3361 54.5054C61.3361 55.0275 61.7594 55.4507 62.2815 55.4507H65.8424C66.3646 55.4507 66.7878 55.0275 66.7878 54.5054V48.3605C66.7878 48.1506 66.7179 47.9464 66.5893 47.7807Z" fill="#00FF73"/>
<path d="M43.626 48.7702H39.2773C38.7551 48.7702 38.3319 49.1934 38.3319 49.7156C38.3319 50.2377 38.7551 50.6609 39.2773 50.6609H43.626C44.1482 50.6609 44.5713 50.2377 44.5713 49.7156C44.5714 49.1934 44.1482 48.7702 43.626 48.7702Z" fill="#00FF73"/>
<path d="M45.8004 45.0517H37.7331C37.211 45.0517 36.7878 45.4749 36.7878 45.9971C36.7878 46.5193 37.211 46.9424 37.7331 46.9424H45.8004C46.3226 46.9424 46.7457 46.5192 46.7457 45.9971C46.7457 45.4749 46.3226 45.0517 45.8004 45.0517Z" fill="#00FF73"/>
<path d="M47.3445 41.3332H39.2773C38.7551 41.3332 38.3319 41.7564 38.3319 42.2785C38.3319 42.8007 38.7551 43.2239 39.2773 43.2239H47.3445C47.8667 43.2239 48.2899 42.8007 48.2899 42.2785C48.2899 41.7564 47.8667 41.3332 47.3445 41.3332Z" fill="#00FF73"/>
</g>
<defs>
<filter id="filter0_d" x="0.381592" y="0.0348206" width="101.118" height="97.7091" filterUnits="userSpaceOnUse" color-interpolation-filters="sRGB">
<feFlood flood-opacity="0" result="BackgroundImageFix"/>
<feColorMatrix in="SourceAlpha" type="matrix" values="0 0 0 0 0 0 0 0 0 0 0 0 0 0 0 0 0 0 127 0"/>
<feOffset dy="4"/>
<feGaussianBlur stdDeviation="10"/>
<feColorMatrix type="matrix" values="0 0 0 0 0.117647 0 0 0 0 0.215686 0 0 0 0 0.396078 0 0 0 0.2 0"/>
<feBlend mode="normal" in2="BackgroundImageFix" result="effect1_dropShadow"/>
<feBlend mode="normal" in="SourceGraphic" in2="effect1_dropShadow" result="shape"/>
</filter>
<linearGradient id="paint0_linear" x1="7.16443" y1="13.9062" x2="69.902" y2="67.267" gradientUnits="userSpaceOnUse">
<stop stop-color="#1D3665"/>
<stop offset="1" stop-color="#1D3665"/>
</linearGradient>
<clipPath id="clip0">
<rect width="30" height="30" fill="white" transform="translate(36.7878 32.8563)"/>
</clipPath>
</defs>
</svg>
