<svg width="104" height="100" viewBox="0 0 104 100" fill="none" xmlns="http://www.w3.org/2000/svg">
<path d="M52.1266 84.0065L52.1232 84.0071C51.0842 84.1891 49.6786 83.9196 47.9359 83.1149C46.2133 82.3195 44.2699 81.0516 42.2064 79.3994C38.082 76.097 33.5826 71.3437 29.5502 66.0505C25.5177 60.7573 21.9843 54.9664 19.7656 49.6041C17.5266 44.1931 16.7107 39.4205 17.8178 36.0464L17.8193 36.0419C18.924 32.6209 21.7164 29.5983 25.7523 27.1847C29.7806 24.7757 34.9699 23.0234 40.701 22.116C52.178 20.2988 65.6211 21.8995 75.942 28.1224L75.9434 28.1233C81.3124 31.3483 83.6279 36.1426 83.8329 41.6546C84.04 47.2226 82.0856 53.5393 78.821 59.6183C75.563 65.6855 71.0438 71.4333 66.2333 75.8475C61.4004 80.2822 56.3767 83.2769 52.1266 84.0065Z" stroke="#00FF73" stroke-width="2"/>
<g filter="url(#filter0_d)">
<path d="M53.5574 16.7688C43.7816 15.0668 16.5234 48.1141 21.0189 61.7302C25.443 75.3462 56.3403 81.0905 75.7493 69.4601C96.6568 56.9787 70.1835 19.6055 53.5574 16.7688Z" fill="url(#paint0_linear)"/>
</g>
<g clip-path="url(#clip0)">
<path d="M66.8114 44.4692C66.4235 43.3224 65.4916 42.5998 64.6692 41.9617C64.2298 41.6211 63.8147 41.2992 63.5749 40.9837C63.3305 40.6617 63.1373 40.1811 62.9331 39.6718C62.555 38.7301 62.1257 37.6632 61.1324 36.9702C60.1602 36.2909 58.9883 36.2278 57.9545 36.1734C57.3734 36.142 56.8245 36.1127 56.4064 35.9821C56.0234 35.8634 55.5809 35.5872 55.1128 35.2946C54.2303 34.7435 53.2297 34.1191 51.988 34.1191C50.7457 34.1191 49.7463 34.7435 48.8644 35.2946C48.3957 35.5872 47.9538 35.8628 47.5702 35.9827C47.1528 36.1127 46.6032 36.142 46.0215 36.1734C44.9883 36.229 43.8171 36.2909 42.8436 36.9702C41.8509 37.6632 41.4222 38.7301 41.0435 39.6712C40.8393 40.1805 40.6456 40.6617 40.4005 40.9849C40.1607 41.301 39.7457 41.623 39.3056 41.9635C38.485 42.601 37.5531 43.323 37.1658 44.4686C36.7884 45.5821 37.0914 46.6816 37.3587 47.6514C37.5076 48.1915 37.6483 48.7008 37.6483 49.1183C37.6483 49.5363 37.5076 50.0456 37.3587 50.5864C37.0914 51.5556 36.789 52.6548 37.1658 53.7692C37.5537 54.9148 38.485 55.6365 39.3068 56.2739C39.7463 56.6148 40.1613 56.9364 40.4011 57.252C40.6456 57.5745 40.8387 58.0551 41.0435 58.5651C41.4216 59.5071 41.8516 60.5739 42.8455 61.2682C43.8177 61.9462 44.9883 62.0088 46.0215 62.0631C46.6032 62.0942 47.1528 62.1238 47.5702 62.2538C47.9532 62.3731 48.3951 62.6493 48.8626 62.9417C49.7451 63.4931 50.7457 64.1174 51.988 64.1174C53.2303 64.1174 54.2315 63.4931 55.1141 62.9417C55.5822 62.6493 56.024 62.3738 56.407 62.2538C56.8245 62.1238 57.3741 62.0942 57.9557 62.0631C58.989 62.0082 60.1595 61.9456 61.1324 61.2676C62.1263 60.5739 62.555 59.5059 62.9344 58.5632C63.1385 58.0545 63.3317 57.5733 63.5749 57.2529C63.8147 56.9364 64.2298 56.6148 64.6692 56.2745C65.491 55.6371 66.4235 54.9148 66.8114 53.7692C67.1889 52.6548 66.8852 51.5556 66.6179 50.5855C66.4684 50.0456 66.3277 49.5351 66.3277 49.1177C66.3277 48.7002 66.4684 48.19 66.6179 47.6502C66.8852 46.6816 67.1883 45.5815 66.8114 44.4692ZM64.2081 51.2507C64.3878 51.9044 64.5749 52.5806 64.4437 52.9672C64.2972 53.4006 63.7079 53.8574 63.1379 54.2993C62.5898 54.724 62.0238 55.1629 61.5837 55.7423C61.1376 56.3304 60.8712 56.9923 60.6145 57.6316C60.3414 58.3097 60.0839 58.9502 59.7012 59.2175C59.3146 59.4882 58.5901 59.5263 57.8226 59.5675C57.1128 59.6057 56.3789 59.6444 55.6639 59.8675C54.9734 60.0826 54.3722 60.4577 53.7903 60.8208C53.1342 61.2306 52.5147 61.6176 51.988 61.6176C51.4619 61.6176 50.8424 61.2306 50.187 60.822C49.605 60.4589 49.0039 60.0826 48.3133 59.8681C47.5977 59.645 46.8644 59.6057 46.1546 59.5681C45.3871 59.5275 44.6627 59.4888 44.2766 59.219C43.8934 58.9514 43.6361 58.3109 43.363 57.6328C43.1054 56.9935 42.839 56.331 42.3917 55.7423C41.9529 55.1635 41.3868 54.724 40.8387 54.2993C40.2693 53.858 39.68 53.4006 39.5336 52.9678C39.4023 52.5806 39.5888 51.9044 39.7685 51.2498C39.9461 50.6056 40.1475 49.8745 40.1475 49.1189C40.1475 48.3633 39.9461 47.6328 39.7685 46.9877C39.5888 46.334 39.4023 45.6584 39.5336 45.2702C39.68 44.8378 40.2687 44.381 40.8381 43.9397C41.3862 43.514 41.9535 43.0743 42.3917 42.496C42.839 41.9068 43.1061 41.2443 43.3636 40.6043C43.6361 39.9269 43.8934 39.287 44.2748 39.0206C44.6627 38.7493 45.3877 38.7105 46.1552 38.6693C46.8644 38.6312 47.5977 38.5918 48.3127 38.37C49.0039 38.1551 49.6056 37.7789 50.1882 37.4157C50.8437 37.005 51.4625 36.619 51.988 36.619C52.5141 36.619 53.133 37.005 53.7891 37.4145C54.3716 37.7783 54.9734 38.1545 55.6639 38.3681C56.3795 38.5906 57.1122 38.6306 57.8214 38.6681C58.5889 38.7087 59.314 38.7475 59.7012 39.0193C60.0839 39.2864 60.3405 39.9257 60.613 40.6031C60.8706 41.243 61.137 41.9055 61.5843 42.4948C62.0238 43.0728 62.5898 43.5122 63.1379 43.9373C63.7073 44.3785 64.2966 44.836 64.4437 45.2696C64.5749 45.6566 64.3878 46.3322 64.2081 46.9858C64.0299 47.6309 63.8279 48.3621 63.8279 49.1183C63.8279 49.8745 64.0299 50.6056 64.2081 51.2507Z" fill="#00FF73"/>
<path d="M57.6126 49.1182C57.6126 52.2199 55.0896 54.7429 51.9879 54.7429C48.8863 54.7429 46.3633 52.2199 46.3633 49.1182C46.3633 46.0166 48.8863 43.4935 51.9879 43.4935H53.2379V40.9937H51.9879C47.5082 40.9937 43.8634 44.6385 43.8634 49.1182C43.8634 53.598 47.5082 57.2428 51.9879 57.2428C56.4677 57.2428 60.1125 53.598 60.1125 49.1182V47.8683H57.6126V49.1182Z" fill="#00FF73"/>
<path d="M50.7381 46.1008L48.9706 47.8683L51.988 50.8854L58.7552 44.1185L56.9877 42.351L51.988 47.3508L50.7381 46.1008Z" fill="#00FF73"/>
</g>
<defs>
<filter id="filter0_d" x="0.522461" y="0.705444" width="102.932" height="99.0102" filterUnits="userSpaceOnUse" color-interpolation-filters="sRGB">
<feFlood flood-opacity="0" result="BackgroundImageFix"/>
<feColorMatrix in="SourceAlpha" type="matrix" values="0 0 0 0 0 0 0 0 0 0 0 0 0 0 0 0 0 0 127 0"/>
<feOffset dy="4"/>
<feGaussianBlur stdDeviation="10"/>
<feColorMatrix type="matrix" values="0 0 0 0 0.117647 0 0 0 0 0.215686 0 0 0 0 0.396078 0 0 0 0.2 0"/>
<feBlend mode="normal" in2="BackgroundImageFix" result="effect1_dropShadow"/>
<feBlend mode="normal" in="SourceGraphic" in2="effect1_dropShadow" result="shape"/>
</filter>
<linearGradient id="paint0_linear" x1="10.5966" y1="11.1867" x2="70.4059" y2="70.7367" gradientUnits="userSpaceOnUse">
<stop stop-color="#1D3665"/>
<stop offset="1" stop-color="#1D3665"/>
</linearGradient>
<clipPath id="clip0">
<rect width="30" height="30" fill="white" transform="translate(36.9885 34.1173)"/>
</clipPath>
</defs>
</svg>
