<svg width="1125" height="530" viewBox="0 0 1125 530" fill="none" xmlns="http://www.w3.org/2000/svg">
<g clip-path="url(#clip0)">
<path d="M73.4503 428.494L66.5403 428.482L66.5258 435.393L73.4357 435.405L73.4503 428.494Z" fill="#00FF73" fill-opacity="0.2"/>
<path d="M102.309 428.503L95.3992 428.491L95.3847 435.402L102.295 435.414L102.309 428.503Z" fill="#00FF73" fill-opacity="0.2"/>
<path d="M131.473 428.822L124.563 428.809L124.548 435.72L131.458 435.733L131.473 428.822Z" fill="#00FF73" fill-opacity="0.2"/>
<path d="M160.331 428.833L153.421 428.82L153.406 435.731L160.316 435.744L160.331 428.833Z" fill="#00FF73" fill-opacity="0.2"/>
<path d="M189.225 428.858L182.315 428.846L182.3 435.757L189.21 435.77L189.225 428.858Z" fill="#00FF73" fill-opacity="0.2"/>
<path d="M218.413 428.868L211.503 428.855L211.488 435.766L218.398 435.779L218.413 428.868Z" fill="#00FF73" fill-opacity="0.2"/>
<path d="M247.245 428.864L240.336 428.851L240.32 435.761L247.23 435.775L247.245 428.864Z" fill="#00FF73" fill-opacity="0.2"/>
<path d="M276.103 428.874L269.194 428.861L269.178 435.772L276.088 435.785L276.103 428.874Z" fill="#00FF73" fill-opacity="0.2"/>
<path d="M305.309 428.899L298.399 428.887L298.385 435.798L305.295 435.811L305.309 428.899Z" fill="#00FF73" fill-opacity="0.2"/>
<path d="M334.167 429.237L327.257 429.225L327.243 436.136L334.153 436.149L334.167 429.237Z" fill="#00FF73" fill-opacity="0.2"/>
<path d="M362.998 429.242L356.088 429.228L356.073 436.139L362.982 436.152L362.998 429.242Z" fill="#00FF73" fill-opacity="0.2"/>
<path d="M392.185 429.254L385.276 429.24L385.261 436.151L392.17 436.164L392.185 429.254Z" fill="#00FF73" fill-opacity="0.2"/>
<path d="M421.074 429.266L414.164 429.254L414.149 436.165L421.059 436.177L421.074 429.266Z" fill="#00FF73" fill-opacity="0.2"/>
<path d="M449.933 429.276L443.023 429.263L443.009 436.174L449.918 436.187L449.933 429.276Z" fill="#00FF73" fill-opacity="0.2"/>
<path d="M479.128 429.277L472.218 429.265L472.204 436.176L479.113 436.188L479.128 429.277Z" fill="#00FF73" fill-opacity="0.2"/>
<path d="M507.955 429.29L501.045 429.277L501.03 436.188L507.94 436.201L507.955 429.29Z" fill="#00FF73" fill-opacity="0.2"/>
<path d="M536.812 429.629L529.903 429.616L529.887 436.527L536.797 436.54L536.812 429.629Z" fill="#00FF73" fill-opacity="0.2"/>
<path d="M566.032 429.633L559.122 429.621L559.108 436.532L566.018 436.544L566.032 429.633Z" fill="#00FF73" fill-opacity="0.2"/>
<path d="M594.885 429.652L587.975 429.64L587.961 436.551L594.871 436.563L594.885 429.652Z" fill="#00FF73" fill-opacity="0.2"/>
<path d="M623.711 429.673L616.801 429.66L616.786 436.571L623.695 436.584L623.711 429.673Z" fill="#00FF73" fill-opacity="0.2"/>
<path d="M652.898 429.685L645.988 429.672L645.973 436.582L652.883 436.596L652.898 429.685Z" fill="#00FF73" fill-opacity="0.2"/>
<path d="M681.792 429.681L674.882 429.668L674.867 436.579L681.777 436.592L681.792 429.681Z" fill="#00FF73" fill-opacity="0.2"/>
<path d="M710.651 429.69L703.741 429.677L703.726 436.588L710.636 436.601L710.651 429.69Z" fill="#00FF73" fill-opacity="0.2"/>
<path d="M739.802 429.719L732.893 429.706L732.878 436.617L739.787 436.63L739.802 429.719Z" fill="#00FF73" fill-opacity="0.2"/>
<path d="M768.664 430.045L761.754 430.032L761.739 436.943L768.648 436.956L768.664 430.045Z" fill="#00FF73" fill-opacity="0.2"/>
<path d="M797.56 430.033L790.65 430.021L790.635 436.932L797.545 436.944L797.56 430.033Z" fill="#00FF73" fill-opacity="0.2"/>
<path d="M826.748 430.042L819.838 430.03L819.823 436.941L826.733 436.953L826.748 430.042Z" fill="#00FF73" fill-opacity="0.2"/>
<path d="M855.567 430.078L848.657 430.065L848.642 436.975L855.552 436.988L855.567 430.078Z" fill="#00FF73" fill-opacity="0.2"/>
<path d="M884.423 430.105L877.514 430.092L877.499 437.002L884.408 437.015L884.423 430.105Z" fill="#00FF73" fill-opacity="0.2"/>
<path d="M73.4319 457.687L66.5219 457.674L66.5074 464.586L73.4173 464.598L73.4319 457.687Z" fill="#00FF73" fill-opacity="0.2"/>
<path d="M102.265 457.674L95.3558 457.661L95.3406 464.571L102.25 464.584L102.265 457.674Z" fill="#00FF73" fill-opacity="0.2"/>
<path d="M131.124 457.685L124.214 457.672L124.199 464.582L131.109 464.596L131.124 457.685Z" fill="#00FF73" fill-opacity="0.2"/>
<path d="M160.338 457.715L153.428 457.703L153.413 464.614L160.323 464.627L160.338 457.715Z" fill="#00FF73" fill-opacity="0.2"/>
<path d="M189.197 457.725L182.287 457.712L182.272 464.623L189.182 464.636L189.197 457.725Z" fill="#00FF73" fill-opacity="0.2"/>
<path d="M218.056 457.734L211.146 457.722L211.132 464.633L218.042 464.645L218.056 457.734Z" fill="#00FF73" fill-opacity="0.2"/>
<path d="M247.226 457.727L240.316 457.713L240.301 464.624L247.211 464.637L247.226 457.727Z" fill="#00FF73" fill-opacity="0.2"/>
<path d="M276.084 458.066L269.174 458.053L269.159 464.964L276.068 464.977L276.084 458.066Z" fill="#00FF73" fill-opacity="0.2"/>
<path d="M304.971 458.087L298.061 458.074L298.047 464.985L304.956 464.998L304.971 458.087Z" fill="#00FF73" fill-opacity="0.2"/>
<path d="M334.159 458.096L327.249 458.083L327.234 464.994L334.144 465.007L334.159 458.096Z" fill="#00FF73" fill-opacity="0.2"/>
<path d="M362.978 458.105L356.068 458.092L356.053 465.003L362.963 465.016L362.978 458.105Z" fill="#00FF73" fill-opacity="0.2"/>
<path d="M391.837 458.116L384.927 458.103L384.912 465.014L391.822 465.027L391.837 458.116Z" fill="#00FF73" fill-opacity="0.2"/>
<path d="M421.056 458.13L414.146 458.118L414.132 465.029L421.042 465.041L421.056 458.13Z" fill="#00FF73" fill-opacity="0.2"/>
<path d="M449.915 458.139L443.005 458.127L442.991 465.038L449.901 465.051L449.915 458.139Z" fill="#00FF73" fill-opacity="0.2"/>
<path d="M478.74 458.479L471.831 458.466L471.816 465.377L478.725 465.39L478.74 458.479Z" fill="#00FF73" fill-opacity="0.2"/>
<path d="M507.928 458.491L501.018 458.478L501.003 465.389L507.913 465.402L507.928 458.491Z" fill="#00FF73" fill-opacity="0.2"/>
<path d="M536.827 458.487L529.917 458.475L529.903 465.386L536.813 465.398L536.827 458.487Z" fill="#00FF73" fill-opacity="0.2"/>
<path d="M565.686 458.496L558.776 458.483L558.762 465.394L565.672 465.407L565.686 458.496Z" fill="#00FF73" fill-opacity="0.2"/>
<path d="M594.839 458.514L587.929 458.501L587.914 465.412L594.823 465.425L594.839 458.514Z" fill="#00FF73" fill-opacity="0.2"/>
<path d="M623.696 458.525L616.787 458.512L616.772 465.423L623.681 465.436L623.696 458.525Z" fill="#00FF73" fill-opacity="0.2"/>
<path d="M652.549 458.548L645.64 458.535L645.624 465.445L652.534 465.459L652.549 458.548Z" fill="#00FF73" fill-opacity="0.2"/>
<path d="M681.774 458.874L674.864 458.861L674.849 465.772L681.759 465.785L681.774 458.874Z" fill="#00FF73" fill-opacity="0.2"/>
<path d="M710.632 458.883L703.723 458.871L703.708 465.782L710.618 465.794L710.632 458.883Z" fill="#00FF73" fill-opacity="0.2"/>
<path d="M739.453 458.911L732.544 458.898L732.529 465.808L739.438 465.822L739.453 458.911Z" fill="#00FF73" fill-opacity="0.2"/>
<path d="M768.641 458.923L761.731 458.91L761.716 465.82L768.626 465.833L768.641 458.923Z" fill="#00FF73" fill-opacity="0.2"/>
<path d="M797.539 458.912L790.629 458.899L790.614 465.81L797.524 465.823L797.539 458.912Z" fill="#00FF73" fill-opacity="0.2"/>
<path d="M826.398 458.921L819.488 458.909L819.474 465.82L826.383 465.832L826.398 458.921Z" fill="#00FF73" fill-opacity="0.2"/>
<path d="M855.548 458.941L848.639 458.928L848.623 465.838L855.533 465.851L855.548 458.941Z" fill="#00FF73" fill-opacity="0.2"/>
<path d="M884.406 458.951L877.497 458.938L877.482 465.849L884.391 465.862L884.406 458.951Z" fill="#00FF73" fill-opacity="0.2"/>
<path d="M73.4268 486.55L66.5169 486.537L66.5024 493.448L73.4123 493.461L73.4268 486.55Z" fill="#00FF73" fill-opacity="0.2"/>
<path d="M102.258 486.535L95.3488 486.522L95.3336 493.433L102.243 493.446L102.258 486.535Z" fill="#00FF73" fill-opacity="0.2"/>
<path d="M131.105 486.548L124.195 486.535L124.18 493.446L131.089 493.459L131.105 486.548Z" fill="#00FF73" fill-opacity="0.2"/>
<path d="M160.32 486.58L153.41 486.567L153.396 493.478L160.305 493.491L160.32 486.58Z" fill="#00FF73" fill-opacity="0.2"/>
<path d="M189.179 486.918L182.269 486.905L182.254 493.816L189.164 493.829L189.179 486.918Z" fill="#00FF73" fill-opacity="0.2"/>
<path d="M218.008 486.911L211.099 486.898L211.083 493.809L217.993 493.822L218.008 486.911Z" fill="#00FF73" fill-opacity="0.2"/>
<path d="M247.196 486.923L240.286 486.91L240.271 493.821L247.18 493.834L247.196 486.923Z" fill="#00FF73" fill-opacity="0.2"/>
<path d="M276.085 486.946L269.175 486.934L269.161 493.845L276.07 493.857L276.085 486.946Z" fill="#00FF73" fill-opacity="0.2"/>
<path d="M304.944 486.955L298.034 486.943L298.019 493.854L304.929 493.867L304.944 486.955Z" fill="#00FF73" fill-opacity="0.2"/>
<path d="M334.11 486.951L327.2 486.938L327.185 493.849L334.095 493.862L334.11 486.951Z" fill="#00FF73" fill-opacity="0.2"/>
<path d="M362.968 486.962L356.058 486.949L356.043 493.86L362.953 493.873L362.968 486.962Z" fill="#00FF73" fill-opacity="0.2"/>
<path d="M391.826 486.972L384.916 486.959L384.901 493.87L391.811 493.883L391.826 486.972Z" fill="#00FF73" fill-opacity="0.2"/>
<path d="M421.037 487.323L414.128 487.311L414.113 494.222L421.023 494.234L421.037 487.323Z" fill="#00FF73" fill-opacity="0.2"/>
<path d="M449.897 487.333L442.987 487.32L442.972 494.231L449.882 494.244L449.897 487.333Z" fill="#00FF73" fill-opacity="0.2"/>
<path d="M478.721 487.343L471.811 487.33L471.796 494.24L478.706 494.254L478.721 487.343Z" fill="#00FF73" fill-opacity="0.2"/>
<path d="M507.909 487.355L500.999 487.342L500.984 494.252L507.893 494.265L507.909 487.355Z" fill="#00FF73" fill-opacity="0.2"/>
<path d="M536.802 487.361L529.893 487.348L529.878 494.259L536.788 494.272L536.802 487.361Z" fill="#00FF73" fill-opacity="0.2"/>
<path d="M565.662 487.37L558.752 487.358L558.737 494.269L565.647 494.281L565.662 487.37Z" fill="#00FF73" fill-opacity="0.2"/>
<path d="M594.813 487.389L587.903 487.376L587.888 494.286L594.798 494.3L594.813 487.389Z" fill="#00FF73" fill-opacity="0.2"/>
<path d="M623.677 487.717L616.767 487.704L616.752 494.615L623.662 494.628L623.677 487.717Z" fill="#00FF73" fill-opacity="0.2"/>
<path d="M652.574 487.715L645.664 487.703L645.649 494.614L652.559 494.626L652.574 487.715Z" fill="#00FF73" fill-opacity="0.2"/>
<path d="M681.761 487.725L674.851 487.712L674.837 494.623L681.747 494.636L681.761 487.725Z" fill="#00FF73" fill-opacity="0.2"/>
<path d="M710.58 487.749L703.671 487.736L703.656 494.647L710.565 494.66L710.58 487.749Z" fill="#00FF73" fill-opacity="0.2"/>
<path d="M739.434 487.774L732.524 487.761L732.509 494.672L739.418 494.685L739.434 487.774Z" fill="#00FF73" fill-opacity="0.2"/>
<path d="M768.662 487.766L761.752 487.754L761.738 494.665L768.647 494.677L768.662 487.766Z" fill="#00FF73" fill-opacity="0.2"/>
<path d="M797.521 487.775L790.611 487.763L790.596 494.674L797.506 494.686L797.521 487.775Z" fill="#00FF73" fill-opacity="0.2"/>
<path d="M826.379 488.114L819.469 488.101L819.455 495.013L826.365 495.025L826.379 488.114Z" fill="#00FF73" fill-opacity="0.2"/>
<path d="M855.525 488.149L848.615 488.136L848.6 495.047L855.51 495.06L855.525 488.149Z" fill="#00FF73" fill-opacity="0.2"/>
<path d="M884.383 488.161L877.474 488.147L877.458 495.058L884.368 495.071L884.383 488.161Z" fill="#00FF73" fill-opacity="0.2"/>
<path d="M73.3678 515.389L66.4582 515.376L66.4431 522.286L73.3526 522.3L73.3678 515.389Z" fill="#00FF73" fill-opacity="0.2"/>
<path d="M102.239 515.399L95.3297 515.385L95.3146 522.296L102.224 522.309L102.239 515.399Z" fill="#00FF73" fill-opacity="0.2"/>
<path d="M131.097 515.738L124.187 515.725L124.172 522.636L131.082 522.649L131.097 515.738Z" fill="#00FF73" fill-opacity="0.2"/>
<path d="M160.314 515.769L153.404 515.757L153.39 522.668L160.3 522.68L160.314 515.769Z" fill="#00FF73" fill-opacity="0.2"/>
<path d="M189.161 515.782L182.251 515.769L182.236 522.68L189.146 522.693L189.161 515.782Z" fill="#00FF73" fill-opacity="0.2"/>
<path d="M217.988 515.775L211.079 515.762L211.064 522.672L217.973 522.686L217.988 515.775Z" fill="#00FF73" fill-opacity="0.2"/>
<path d="M247.176 515.786L240.267 515.773L240.251 522.684L247.161 522.697L247.176 515.786Z" fill="#00FF73" fill-opacity="0.2"/>
<path d="M276.067 515.81L269.157 515.798L269.143 522.709L276.053 522.721L276.067 515.81Z" fill="#00FF73" fill-opacity="0.2"/>
<path d="M304.926 515.82L298.016 515.807L298.002 522.718L304.912 522.731L304.926 515.82Z" fill="#00FF73" fill-opacity="0.2"/>
<path d="M334.08 516.15L327.17 516.137L327.155 523.047L334.065 523.061L334.08 516.15Z" fill="#00FF73" fill-opacity="0.2"/>
<path d="M362.938 516.161L356.029 516.148L356.014 523.058L362.923 523.072L362.938 516.161Z" fill="#00FF73" fill-opacity="0.2"/>
<path d="M391.842 516.17L384.932 516.157L384.917 523.068L391.827 523.081L391.842 516.17Z" fill="#00FF73" fill-opacity="0.2"/>
<path d="M421.029 516.179L414.12 516.166L414.105 523.078L421.015 523.09L421.029 516.179Z" fill="#00FF73" fill-opacity="0.2"/>
<path d="M449.852 516.186L442.942 516.173L442.927 523.084L449.837 523.097L449.852 516.186Z" fill="#00FF73" fill-opacity="0.2"/>
<path d="M478.71 516.197L471.8 516.184L471.785 523.094L478.695 523.108L478.71 516.197Z" fill="#00FF73" fill-opacity="0.2"/>
<path d="M507.926 516.216L501.016 516.203L501.002 523.114L507.912 523.127L507.926 516.216Z" fill="#00FF73" fill-opacity="0.2"/>
<path d="M536.785 516.554L529.875 516.541L529.86 523.452L536.77 523.465L536.785 516.554Z" fill="#00FF73" fill-opacity="0.2"/>
<path d="M565.644 516.563L558.734 516.551L558.719 523.462L565.629 523.474L565.644 516.563Z" fill="#00FF73" fill-opacity="0.2"/>
<path d="M594.792 516.581L587.883 516.568L587.868 523.479L594.777 523.492L594.792 516.581Z" fill="#00FF73" fill-opacity="0.2"/>
<path d="M623.651 516.592L616.741 516.579L616.726 523.49L623.636 523.503L623.651 516.592Z" fill="#00FF73" fill-opacity="0.2"/>
<path d="M652.55 516.592L645.64 516.579L645.625 523.49L652.535 523.503L652.55 516.592Z" fill="#00FF73" fill-opacity="0.2"/>
<path d="M681.415 516.588L674.505 516.575L674.491 523.486L681.401 523.499L681.415 516.588Z" fill="#00FF73" fill-opacity="0.2"/>
<path d="M710.562 516.613L703.652 516.599L703.637 523.51L710.546 523.523L710.562 516.613Z" fill="#00FF73" fill-opacity="0.2"/>
<path d="M739.42 516.623L732.51 516.61L732.495 523.521L739.404 523.534L739.42 516.623Z" fill="#00FF73" fill-opacity="0.2"/>
<path d="M768.32 516.944L761.41 516.931L761.395 523.842L768.305 523.855L768.32 516.944Z" fill="#00FF73" fill-opacity="0.2"/>
<path d="M797.503 516.969L790.593 516.956L790.578 523.867L797.488 523.88L797.503 516.969Z" fill="#00FF73" fill-opacity="0.2"/>
<path d="M826.318 517.001L819.408 516.988L819.393 523.898L826.303 523.912L826.318 517.001Z" fill="#00FF73" fill-opacity="0.2"/>
<path d="M855.176 517.012L848.267 516.999L848.252 523.91L855.161 523.923L855.176 517.012Z" fill="#00FF73" fill-opacity="0.2"/>
<path d="M884.409 516.997L877.499 516.985L877.484 523.896L884.394 523.908L884.409 516.997Z" fill="#00FF73" fill-opacity="0.2"/>
</g>
<defs>
<clipPath id="clip0">
<rect width="935.727" height="626.003" fill="white" transform="translate(313.693 0.44751) rotate(30)"/>
</clipPath>
</defs>
</svg>
