<svg width="145" height="24" viewBox="0 0 145 24" fill="none" xmlns="http://www.w3.org/2000/svg">
<path d="M39.8755 4.21613C32.1717 4.26583 24.4679 4.26583 16.7641 4.56404C15.0743 4.61374 12.9371 5.60778 11.9431 6.90003C8.06631 12.0193 4.58718 17.4368 0.909241 22.8046C4.98479 24.2957 7.61899 23.5005 9.85558 20.1704C12.1916 16.6416 14.4281 13.0631 16.9132 9.63363C17.5594 8.739 18.951 7.84436 20.0445 7.79466C23.7721 7.54615 27.4997 7.59585 31.2274 7.59585C31.8735 7.59585 32.4699 7.74496 33.5137 7.94377C32.0723 10.1804 30.7801 12.069 29.5872 14.0074C28.8417 15.2002 27.8974 15.6476 26.5057 15.6476C23.5236 15.5979 20.5415 15.6476 17.5594 15.6476C15.0246 15.6476 14.5276 16.0452 13.6329 18.6794C19.7462 18.6794 25.8099 18.7788 31.8735 18.58C32.9172 18.5303 34.2095 17.4368 34.955 16.4925C37.1916 13.4607 39.2294 10.2301 41.3169 7.09884C42.3606 5.30957 41.8636 4.16643 39.8755 4.21613Z" fill="black"/>
<path d="M117.46 4.66345C117.261 4.16643 115.87 3.91792 115.025 3.91792C108.514 3.86822 102.003 3.86822 95.4422 3.91792C93.0565 3.91792 92.3607 4.51434 91.5158 7.14854C94.5476 7.14854 97.48 7.09884 100.462 7.14854C103.345 7.19825 106.277 6.90003 109.707 7.44675C107.818 10.2301 106.327 12.566 104.687 14.8026C104.389 15.2002 103.742 15.4985 103.245 15.4985C98.474 15.5482 93.7027 15.4985 88.9313 15.4488C88.8319 15.4488 88.7325 15.2997 88.6331 15.2002C89.2295 13.4607 90.1738 12.5163 92.1619 12.6157C94.6967 12.7649 97.2812 12.5163 99.816 12.7152C102.152 12.914 103.146 11.6217 104.041 9.43483C99.2196 9.43483 94.647 9.63364 90.1738 9.38513C86.5953 9.18632 84.0108 10.1804 82.47 13.5104C82.1221 14.3056 81.4263 14.902 81.0784 15.6973C80.7802 16.3931 80.3825 17.3871 80.6311 17.8841C80.8796 18.3812 81.973 18.6794 82.6688 18.6794C90.5714 18.7291 98.4243 18.6794 106.327 18.7291C108.365 18.7291 109.905 17.9338 110.999 16.244C112.937 13.2619 114.975 10.3792 116.814 7.39705C117.311 6.55212 117.709 5.40898 117.46 4.66345Z" fill="black"/>
<path d="M74.5177 4.71315C74.2195 4.16643 73.0764 3.86821 72.2811 3.86821C64.8259 3.81851 57.3706 3.81851 49.965 3.81851C47.4799 3.81851 45.5415 4.81255 44.1996 6.90003C42.3109 9.83244 40.3228 12.6654 38.4342 15.5979C37.9868 16.2937 37.4898 17.5362 37.788 17.8841C38.2353 18.4806 39.3785 18.7291 40.1737 18.7788C44.0008 18.8782 47.8775 18.8285 51.7046 18.8285C55.2831 18.8285 58.9113 18.7788 62.4899 18.8285C65.0247 18.8782 66.8636 17.9338 68.2056 15.747C70.0445 12.8145 72.0326 9.98154 73.9213 7.04913C74.3189 6.30361 74.8159 5.21016 74.5177 4.71315ZM61.4958 14.902C61.1976 15.2996 60.4024 15.5482 59.8557 15.5482C55.5813 15.5979 51.3069 15.5979 47.0326 15.5482C46.7344 15.5482 46.4859 15.3493 45.79 15.1008C47.4302 12.6157 48.8716 10.2798 50.5117 8.14257C50.959 7.54615 52.0028 7.09884 52.7483 7.09884C56.8239 6.99943 60.9491 7.04913 65.0247 7.04913C65.4223 7.04913 65.7702 7.29764 66.5157 7.54615C64.7761 10.1306 63.1857 12.566 61.4958 14.902Z" fill="black"/>
<path d="M142.659 3.81849C138.484 3.81849 134.359 3.86819 130.184 3.81849C121.387 3.76879 122.033 3.71909 117.46 10.6276C115.77 13.2121 114.08 15.7469 112.092 18.7291C114.13 18.7291 115.621 18.6296 117.062 18.7291C118.554 18.8285 119.448 18.232 120.243 16.9895C121.884 14.3553 123.723 11.8702 125.363 9.23599C126.208 7.89404 127.251 7.29762 128.892 7.34732C132.719 7.44673 136.595 7.39702 140.422 7.34732C143.057 7.34732 143.802 6.7509 144.697 3.81849C144.001 3.81849 143.355 3.81849 142.659 3.81849Z" fill="black"/>
<path d="M87.7384 1.23402C86.3964 1.08491 85.303 0.736997 84.309 0.886102C82.9173 1.08491 80.9292 1.28372 80.2831 2.22805C76.4561 7.44675 72.9272 12.914 69.0008 18.7788C71.0883 18.7788 72.6787 18.7291 74.2692 18.7788C75.5614 18.8285 76.4064 18.3315 77.1519 17.1883C80.1837 12.5163 83.3646 7.89407 86.4462 3.27179C86.8438 2.67537 87.1917 2.07895 87.7384 1.23402Z" fill="black"/>
</svg>
